<svg width="52" height="24" viewBox="0 0 52 24" fill="none" xmlns="http://www.w3.org/2000/svg">
<rect width="52" height="24" rx="12" fill="#267DFF"/>
<path d="M11.4848 17V6.81818H15.2135C15.9361 6.81818 16.5343 6.9375 17.0083 7.17614C17.4822 7.41146 17.8369 7.7313 18.0722 8.13565C18.3075 8.53669 18.4252 8.98911 18.4252 9.4929C18.4252 9.91714 18.3473 10.2751 18.1915 10.5668C18.0357 10.8551 17.8269 11.0871 17.5651 11.2628C17.3066 11.4351 17.0215 11.5611 16.71 11.6406V11.7401C17.048 11.7566 17.3778 11.866 17.6993 12.0682C18.0241 12.267 18.2926 12.5504 18.5047 12.9183C18.7168 13.2862 18.8229 13.7337 18.8229 14.2607C18.8229 14.781 18.7003 15.2483 18.455 15.6626C18.213 16.0736 17.8385 16.4001 17.3314 16.642C16.8243 16.8807 16.1763 17 15.3875 17H11.4848ZM13.021 15.6825H15.2384C15.9742 15.6825 16.5012 15.54 16.8193 15.255C17.1375 14.9699 17.2966 14.6136 17.2966 14.1861C17.2966 13.8646 17.2154 13.5696 17.053 13.3011C16.8906 13.0327 16.6586 12.8189 16.357 12.6598C16.0587 12.5007 15.704 12.4212 15.2931 12.4212H13.021V15.6825ZM13.021 11.223H15.0793C15.424 11.223 15.7339 11.1567 16.009 11.0241C16.2874 10.8916 16.5078 10.706 16.6702 10.4673C16.8359 10.2254 16.9188 9.94034 16.9188 9.61222C16.9188 9.19129 16.7713 8.8383 16.4763 8.55327C16.1813 8.26823 15.7289 8.12571 15.1191 8.12571H13.021V11.223ZM23.8169 17.1541C23.0645 17.1541 22.4165 16.9934 21.873 16.6719C21.3327 16.3471 20.9151 15.8913 20.6201 15.3047C20.3285 14.7147 20.1826 14.0237 20.1826 13.2315C20.1826 12.4493 20.3285 11.7599 20.6201 11.1634C20.9151 10.5668 21.3261 10.1011 21.8531 9.76633C22.3834 9.43158 23.0032 9.2642 23.7124 9.2642C24.1433 9.2642 24.5609 9.33546 24.9653 9.47798C25.3696 9.6205 25.7326 9.84422 26.0541 10.1491C26.3756 10.4541 26.6291 10.8501 26.8147 11.3374C27.0003 11.8213 27.0931 12.4096 27.0931 13.1023V13.6293H21.0228V12.5156H25.6365C25.6365 12.1245 25.5569 11.7782 25.3978 11.4766C25.2387 11.1716 25.015 10.9313 24.7267 10.7557C24.4416 10.58 24.1069 10.4922 23.7224 10.4922C23.3048 10.4922 22.9402 10.5949 22.6286 10.8004C22.3204 11.0026 22.0818 11.2678 21.9127 11.5959C21.747 11.9207 21.6642 12.2737 21.6642 12.6548V13.5249C21.6642 14.0353 21.7536 14.4695 21.9326 14.8274C22.1149 15.1854 22.3685 15.4588 22.6933 15.6477C23.0181 15.8333 23.3976 15.9261 23.8318 15.9261C24.1135 15.9261 24.3704 15.8864 24.6024 15.8068C24.8344 15.724 25.0349 15.6013 25.2039 15.4389C25.373 15.2765 25.5022 15.076 25.5917 14.8374L26.9987 15.0909C26.886 15.5052 26.6838 15.8681 26.3921 16.1797C26.1038 16.4879 25.7409 16.7282 25.3034 16.9006C24.8692 17.0696 24.3737 17.1541 23.8169 17.1541ZM32.3071 9.36364V10.5568H28.1359V9.36364H32.3071ZM29.2545 7.53409H30.741V14.7578C30.741 15.0462 30.7841 15.2633 30.8703 15.4091C30.9565 15.5516 31.0675 15.6494 31.2034 15.7024C31.3426 15.7521 31.4934 15.777 31.6558 15.777C31.7751 15.777 31.8795 15.7687 31.969 15.7521C32.0585 15.7356 32.1281 15.7223 32.1778 15.7124L32.4463 16.9403C32.3601 16.9735 32.2375 17.0066 32.0784 17.0398C31.9193 17.0762 31.7204 17.0961 31.4818 17.0994C31.0907 17.1061 30.7261 17.0365 30.3881 16.8906C30.05 16.7448 29.7765 16.5194 29.5677 16.2145C29.3589 15.9096 29.2545 15.5268 29.2545 15.0661V7.53409ZM36.7281 17.1491C36.1116 17.1491 35.5614 16.9917 35.0775 16.6768C34.5969 16.3587 34.2191 15.9062 33.944 15.3196C33.6722 14.7296 33.5363 14.022 33.5363 13.1967C33.5363 12.3714 33.6739 11.6655 33.949 11.0788C34.2274 10.4922 34.6085 10.0431 35.0924 9.73153C35.5763 9.41998 36.1249 9.2642 36.738 9.2642C37.212 9.2642 37.5931 9.34375 37.8815 9.50284C38.1731 9.65862 38.3985 9.84091 38.5576 10.0497C38.72 10.2585 38.846 10.4425 38.9355 10.6016H39.0249V9.36364H40.5115V17H39.0597V15.8118H38.9355C38.846 15.9742 38.7167 16.1598 38.5477 16.3686C38.382 16.5774 38.1533 16.7597 37.8616 16.9155C37.5699 17.0713 37.1921 17.1491 36.7281 17.1491ZM37.0562 15.8814C37.4838 15.8814 37.845 15.7687 38.14 15.5433C38.4383 15.3146 38.6637 14.9981 38.8161 14.5938C38.9719 14.1894 39.0498 13.7187 39.0498 13.1818C39.0498 12.6515 38.9736 12.1875 38.8211 11.7898C38.6686 11.392 38.4449 11.0821 38.1499 10.8601C37.855 10.638 37.4904 10.527 37.0562 10.527C36.6088 10.527 36.2359 10.643 35.9376 10.875C35.6393 11.107 35.4139 11.4235 35.2615 11.8246C35.1123 12.2256 35.0377 12.678 35.0377 13.1818C35.0377 13.6922 35.114 14.1513 35.2664 14.5589C35.4189 14.9666 35.6443 15.2898 35.9426 15.5284C36.2442 15.7637 36.6154 15.8814 37.0562 15.8814Z" fill="white"/>
</svg>
