<svg width="232" height="151" viewBox="0 0 232 151" fill="none" xmlns="http://www.w3.org/2000/svg">
<path d="M17.9591 25.8025V20.435H18.7689V22.7675H21.4448V20.435H22.2573V25.8025H21.4448V23.4621H18.7689V25.8025H17.9591ZM25.1088 25.8837C24.7122 25.8837 24.3706 25.799 24.084 25.6295C23.7992 25.4583 23.5791 25.218 23.4236 24.9088C23.2698 24.5978 23.1929 24.2335 23.1929 23.8159C23.1929 23.4035 23.2698 23.0401 23.4236 22.7256C23.5791 22.4111 23.7957 22.1656 24.0735 21.9891C24.3531 21.8127 24.6798 21.7244 25.0537 21.7244C25.2809 21.7244 25.501 21.762 25.7142 21.8371C25.9274 21.9123 26.1187 22.0302 26.2882 22.1909C26.4576 22.3517 26.5913 22.5605 26.6892 22.8173C26.787 23.0724 26.8359 23.3826 26.8359 23.7477V24.0255H23.6359V23.4385H26.068C26.068 23.2323 26.0261 23.0497 25.9422 22.8907C25.8583 22.73 25.7404 22.6033 25.5884 22.5107C25.4381 22.4181 25.2617 22.3718 25.059 22.3718C24.8388 22.3718 24.6466 22.426 24.4824 22.5343C24.3199 22.6409 24.1941 22.7806 24.105 22.9536C24.0176 23.1248 23.9739 23.3109 23.9739 23.5119V23.9705C23.9739 24.2396 24.0211 24.4685 24.1155 24.6572C24.2116 24.8459 24.3452 24.99 24.5165 25.0896C24.6877 25.1875 24.8878 25.2364 25.1166 25.2364C25.2652 25.2364 25.4006 25.2154 25.5229 25.1735C25.6452 25.1298 25.7509 25.0652 25.84 24.9795C25.9291 24.8939 25.9973 24.7882 26.0444 24.6624L26.7861 24.7961C26.7267 25.0145 26.6201 25.2058 26.4664 25.37C26.3144 25.5325 26.1231 25.6592 25.8924 25.7501C25.6635 25.8392 25.4023 25.8837 25.1088 25.8837ZM29.2124 25.8811C28.8874 25.8811 28.5974 25.7981 28.3423 25.6321C28.0889 25.4644 27.8897 25.2259 27.7447 24.9166C27.6014 24.6056 27.5298 24.2326 27.5298 23.7975C27.5298 23.3625 27.6023 22.9903 27.7473 22.681C27.8941 22.3718 28.095 22.135 28.3501 21.9708C28.6052 21.8066 28.8944 21.7244 29.2176 21.7244C29.4675 21.7244 29.6684 21.7664 29.8204 21.8502C29.9742 21.9324 30.093 22.0285 30.1769 22.1385C30.2625 22.2486 30.3289 22.3456 30.3761 22.4294H30.4232V21.7769H31.2069V25.8025H30.4416V25.1761H30.3761C30.3289 25.2617 30.2607 25.3596 30.1716 25.4696C30.0843 25.5797 29.9637 25.6758 29.8099 25.7579C29.6562 25.8401 29.457 25.8811 29.2124 25.8811ZM29.3854 25.2128C29.6108 25.2128 29.8012 25.1534 29.9567 25.0346C30.114 24.914 30.2328 24.7472 30.3132 24.534C30.3953 24.3208 30.4363 24.0727 30.4363 23.7897C30.4363 23.5101 30.3961 23.2655 30.3158 23.0558C30.2354 22.8462 30.1175 22.6828 29.962 22.5657C29.8065 22.4487 29.6143 22.3901 29.3854 22.3901C29.1495 22.3901 28.9529 22.4513 28.7957 22.5736C28.6384 22.6959 28.5196 22.8628 28.4392 23.0742C28.3606 23.2856 28.3213 23.5241 28.3213 23.7897C28.3213 24.0587 28.3615 24.3007 28.4419 24.5156C28.5222 24.7306 28.641 24.9009 28.7983 25.0267C28.9573 25.1508 29.153 25.2128 29.3854 25.2128ZM33.8323 25.8811C33.5073 25.8811 33.2173 25.7981 32.9622 25.6321C32.7088 25.4644 32.5096 25.2259 32.3646 24.9166C32.2214 24.6056 32.1497 24.2326 32.1497 23.7975C32.1497 23.3625 32.2222 22.9903 32.3672 22.681C32.514 22.3718 32.7149 22.135 32.97 21.9708C33.2251 21.8066 33.5143 21.7244 33.8375 21.7244C34.0874 21.7244 34.2883 21.7664 34.4403 21.8502C34.5941 21.9324 34.7129 22.0285 34.7968 22.1385C34.8824 22.2486 34.9488 22.3456 34.996 22.4294H35.0431V20.435H35.8268V25.8025H35.0615V25.1761H34.996C34.9488 25.2617 34.8807 25.3596 34.7915 25.4696C34.7042 25.5797 34.5836 25.6758 34.4299 25.7579C34.2761 25.8401 34.0769 25.8811 33.8323 25.8811ZM34.0053 25.2128C34.2307 25.2128 34.4211 25.1534 34.5766 25.0346C34.7339 24.914 34.8527 24.7472 34.9331 24.534C35.0152 24.3208 35.0562 24.0727 35.0562 23.7897C35.0562 23.5101 35.0161 23.2655 34.9357 23.0558C34.8553 22.8462 34.7374 22.6828 34.5819 22.5657C34.4264 22.4487 34.2342 22.3901 34.0053 22.3901C33.7694 22.3901 33.5728 22.4513 33.4156 22.5736C33.2583 22.6959 33.1395 22.8628 33.0592 23.0742C32.9805 23.2856 32.9412 23.5241 32.9412 23.7897C32.9412 24.0587 32.9814 24.3007 33.0618 24.5156C33.1421 24.7306 33.261 24.9009 33.4182 25.0267C33.5772 25.1508 33.7729 25.2128 34.0053 25.2128ZM36.9452 20.435H37.7289V24.7017C37.7289 24.8747 37.7507 24.997 37.7944 25.0686C37.8398 25.1403 37.9254 25.1744 38.0512 25.1709C38.1194 25.1691 38.17 25.1647 38.2032 25.1578C38.2382 25.1508 38.2696 25.1429 38.2976 25.1342L38.4391 25.7606C38.385 25.7763 38.3159 25.7911 38.2321 25.8051C38.15 25.8208 38.0565 25.8296 37.9516 25.8313C37.6127 25.8366 37.3602 25.7562 37.1942 25.5902C37.0282 25.4242 36.9452 25.1822 36.9452 24.8642V20.435ZM38.9561 25.8025V21.7769H39.7397V25.8025H38.9561ZM39.3518 21.1557C39.2156 21.1557 39.0985 21.1103 39.0006 21.0194C38.9045 20.9268 38.8565 20.8167 38.8565 20.6892C38.8565 20.5599 38.9045 20.4498 39.0006 20.359C39.0985 20.2664 39.2156 20.2201 39.3518 20.2201C39.4881 20.2201 39.6043 20.2664 39.7004 20.359C39.7983 20.4498 39.8472 20.5599 39.8472 20.6892C39.8472 20.8167 39.7983 20.9268 39.7004 21.0194C39.6043 21.1103 39.4881 21.1557 39.3518 21.1557ZM41.5776 23.4123V25.8025H40.794V21.7769H41.5461V22.4321H41.5959C41.6885 22.2189 41.8336 22.0477 42.031 21.9184C42.2302 21.7891 42.4809 21.7244 42.7832 21.7244C43.0575 21.7244 43.2978 21.7821 43.5039 21.8974C43.7101 22.011 43.87 22.1805 43.9835 22.4059C44.0971 22.6313 44.1539 22.9099 44.1539 23.2419V25.8025H43.3703V23.3363C43.3703 23.0445 43.2943 22.8165 43.1423 22.6522C42.9902 22.4862 42.7814 22.4032 42.5159 22.4032C42.3342 22.4032 42.1725 22.4425 42.031 22.5212C41.8912 22.5998 41.7803 22.7151 41.6982 22.8671C41.6178 23.0174 41.5776 23.1991 41.5776 23.4123ZM46.9399 25.8837C46.5433 25.8837 46.2017 25.799 45.9151 25.6295C45.6303 25.4583 45.4102 25.218 45.2547 24.9088C45.1009 24.5978 45.024 24.2335 45.024 23.8159C45.024 23.4035 45.1009 23.0401 45.2547 22.7256C45.4102 22.4111 45.6268 22.1656 45.9046 21.9891C46.1842 21.8127 46.5109 21.7244 46.8848 21.7244C47.112 21.7244 47.3321 21.762 47.5453 21.8371C47.7585 21.9123 47.9498 22.0302 48.1193 22.1909C48.2887 22.3517 48.4224 22.5605 48.5203 22.8173C48.6181 23.0724 48.667 23.3826 48.667 23.7477V24.0255H45.467V23.4385H47.8991C47.8991 23.2323 47.8572 23.0497 47.7733 22.8907C47.6894 22.73 47.5715 22.6033 47.4195 22.5107C47.2692 22.4181 47.0928 22.3718 46.8901 22.3718C46.6699 22.3718 46.4777 22.426 46.3135 22.5343C46.151 22.6409 46.0252 22.7806 45.9361 22.9536C45.8487 23.1248 45.805 23.3109 45.805 23.5119V23.9705C45.805 24.2396 45.8522 24.4685 45.9466 24.6572C46.0427 24.8459 46.1763 24.99 46.3476 25.0896C46.5188 25.1875 46.7189 25.2364 46.9477 25.2364C47.0963 25.2364 47.2317 25.2154 47.354 25.1735C47.4763 25.1298 47.582 25.0652 47.6711 24.9795C47.7602 24.8939 47.8283 24.7882 47.8755 24.6624L48.6172 24.7961C48.5578 25.0145 48.4512 25.2058 48.2975 25.37C48.1455 25.5325 47.9541 25.6592 47.7235 25.7501C47.4946 25.8392 47.2334 25.8837 46.9399 25.8837Z" fill="#111827"/>
<g filter="url(#filter0_d_416_121238)">
<rect x="17.3694" y="30.9111" width="197.688" height="21.5433" rx="3.163" fill="white"/>
<path d="M23.884 38.8151H24.6283L26.117 41.3206H26.1799L27.6685 38.8151H28.4129L26.4734 41.9706V44.1826H25.8234V41.9706L23.884 38.8151ZM30.2357 44.2665C29.8722 44.2665 29.5534 44.18 29.2791 44.007C29.0065 43.834 28.7933 43.5921 28.6396 43.281C28.4876 42.97 28.4115 42.6066 28.4115 42.1908C28.4115 41.7714 28.4876 41.4054 28.6396 41.0926C28.7933 40.7799 29.0065 40.537 29.2791 40.364C29.5534 40.191 29.8722 40.1046 30.2357 40.1046C30.5991 40.1046 30.9171 40.191 31.1897 40.364C31.464 40.537 31.6771 40.7799 31.8291 41.0926C31.9829 41.4054 32.0598 41.7714 32.0598 42.1908C32.0598 42.6066 31.9829 42.97 31.8291 43.281C31.6771 43.5921 31.464 43.834 31.1897 44.007C30.9171 44.18 30.5991 44.2665 30.2357 44.2665ZM30.2357 43.7109C30.5117 43.7109 30.7389 43.6401 30.9171 43.4986C31.0953 43.357 31.2272 43.171 31.3128 42.9403C31.3985 42.7097 31.4413 42.4598 31.4413 42.1908C31.4413 41.9217 31.3985 41.671 31.3128 41.4386C31.2272 41.2062 31.0953 41.0184 30.9171 40.8751C30.7389 40.7318 30.5117 40.6602 30.2357 40.6602C29.9596 40.6602 29.7325 40.7318 29.5542 40.8751C29.376 41.0184 29.2441 41.2062 29.1585 41.4386C29.0729 41.671 29.0301 41.9217 29.0301 42.1908C29.0301 42.4598 29.0729 42.7097 29.1585 42.9403C29.2441 43.171 29.376 43.357 29.5542 43.4986C29.7325 43.6401 29.9596 43.7109 30.2357 43.7109ZM35.5409 42.5367V40.157H36.1595V44.1826H35.5409V43.5012H35.499C35.4047 43.7056 35.2579 43.8795 35.0587 44.0227C34.8595 44.1643 34.6079 44.235 34.3039 44.235C34.0523 44.235 33.8286 44.18 33.633 44.0699C33.4373 43.9581 33.2835 43.7904 33.1717 43.5667C33.0599 43.3413 33.0039 43.0574 33.0039 42.7149V40.157H33.6225V42.673C33.6225 42.9665 33.7046 43.2007 33.8688 43.3754C34.0348 43.5501 34.2462 43.6375 34.5031 43.6375C34.6568 43.6375 34.8132 43.5982 34.9722 43.5195C35.133 43.4409 35.2675 43.3204 35.3758 43.1579C35.4859 42.9954 35.5409 42.7883 35.5409 42.5367ZM37.2923 44.1826V40.157H37.8899V40.765H37.9318C38.0035 40.5658 38.1354 40.4042 38.3276 40.2802C38.5198 40.1561 38.7373 40.0941 38.9802 40.0941C39.092 40.0941 39.1898 40.1072 39.2737 40.1334C39.3576 40.1596 39.4309 40.1954 39.4938 40.2408L39.2842 40.765C39.2405 40.7423 39.189 40.7248 39.1295 40.7126C39.0719 40.6986 39.0046 40.6916 38.9277 40.6916C38.7321 40.6916 38.5573 40.7327 38.4036 40.8148C38.2516 40.8969 38.131 41.0088 38.0419 41.1503C37.9545 41.2918 37.9108 41.4534 37.9108 41.6351V44.1826H37.2923ZM43.836 44.2665C43.4586 44.2665 43.1336 44.1774 42.861 43.9992C42.5884 43.8209 42.3788 43.5755 42.232 43.2627C42.0852 42.9499 42.0118 42.5926 42.0118 42.1908C42.0118 41.7819 42.087 41.4211 42.2372 41.1083C42.3892 40.7938 42.6007 40.5484 42.8715 40.3719C43.144 40.1937 43.462 40.1046 43.8255 40.1046C44.1085 40.1046 44.3636 40.157 44.5908 40.2618C44.8179 40.3666 45.004 40.5134 45.149 40.7021C45.294 40.8908 45.384 41.111 45.419 41.3626H44.8004C44.7533 41.1791 44.6484 41.0166 44.4859 40.8751C44.3252 40.7318 44.1085 40.6602 43.836 40.6602C43.5948 40.6602 43.3834 40.7231 43.2017 40.8489C43.0217 40.9729 42.8811 41.1485 42.7797 41.3757C42.6802 41.6011 42.6304 41.8658 42.6304 42.1698C42.6304 42.4808 42.6793 42.7516 42.7771 42.9823C42.8767 43.2129 43.0165 43.392 43.1965 43.5195C43.3782 43.6471 43.5913 43.7109 43.836 43.7109C43.9967 43.7109 44.1426 43.6829 44.2736 43.627C44.4047 43.5711 44.5156 43.4907 44.6065 43.3859C44.6973 43.281 44.762 43.1552 44.8004 43.0085H45.419C45.384 43.2461 45.2975 43.4601 45.1595 43.6506C45.0232 43.8393 44.8424 43.9895 44.617 44.1014C44.3933 44.2114 44.133 44.2665 43.836 44.2665ZM47.9586 44.2665C47.5951 44.2665 47.2763 44.18 47.002 44.007C46.7294 43.834 46.5162 43.5921 46.3625 43.281C46.2105 42.97 46.1344 42.6066 46.1344 42.1908C46.1344 41.7714 46.2105 41.4054 46.3625 41.0926C46.5162 40.7799 46.7294 40.537 47.002 40.364C47.2763 40.191 47.5951 40.1046 47.9586 40.1046C48.322 40.1046 48.64 40.191 48.9126 40.364C49.1869 40.537 49.4 40.7799 49.552 41.0926C49.7058 41.4054 49.7827 41.7714 49.7827 42.1908C49.7827 42.6066 49.7058 42.97 49.552 43.281C49.4 43.5921 49.1869 43.834 48.9126 44.007C48.64 44.18 48.322 44.2665 47.9586 44.2665ZM47.9586 43.7109C48.2346 43.7109 48.4618 43.6401 48.64 43.4986C48.8182 43.357 48.9501 43.171 49.0357 42.9403C49.1214 42.7097 49.1642 42.4598 49.1642 42.1908C49.1642 41.9217 49.1214 41.671 49.0357 41.4386C48.9501 41.2062 48.8182 41.0184 48.64 40.8751C48.4618 40.7318 48.2346 40.6602 47.9586 40.6602C47.6825 40.6602 47.4554 40.7318 47.2771 40.8751C47.0989 41.0184 46.967 41.2062 46.8814 41.4386C46.7958 41.671 46.753 41.9217 46.753 42.1908C46.753 42.4598 46.7958 42.7097 46.8814 42.9403C46.967 43.171 47.0989 43.357 47.2771 43.4986C47.4554 43.6401 47.6825 43.7109 47.9586 43.7109ZM50.7268 44.1826V40.157H51.3244V40.786H51.3768C51.4607 40.5711 51.5961 40.4042 51.7831 40.2854C51.97 40.1648 52.1945 40.1046 52.4566 40.1046C52.7222 40.1046 52.9432 40.1648 53.1197 40.2854C53.2979 40.4042 53.4368 40.5711 53.5364 40.786H53.5783C53.6814 40.5781 53.8361 40.4129 54.0422 40.2906C54.2484 40.1666 54.4956 40.1046 54.7839 40.1046C55.1439 40.1046 55.4383 40.2173 55.6672 40.4427C55.8961 40.6663 56.0105 41.0149 56.0105 41.4884V44.1826H55.392V41.4884C55.392 41.1913 55.3107 40.9791 55.1482 40.8515C54.9857 40.724 54.7944 40.6602 54.5743 40.6602C54.2912 40.6602 54.0719 40.7458 53.9164 40.917C53.7609 41.0865 53.6832 41.3014 53.6832 41.5618V44.1826H53.0542V41.4255C53.0542 41.1966 52.9799 41.0123 52.8314 40.8725C52.6829 40.7309 52.4916 40.6602 52.2574 40.6602C52.0967 40.6602 51.9464 40.703 51.8066 40.7886C51.6686 40.8742 51.5568 40.993 51.4712 41.145C51.3873 41.2953 51.3454 41.4692 51.3454 41.6666V44.1826H50.7268ZM57.1414 45.6922V40.157H57.739V40.7965H57.8123C57.8578 40.7266 57.9207 40.6375 58.001 40.5291C58.0832 40.4191 58.2002 40.3212 58.3522 40.2356C58.506 40.1482 58.7139 40.1046 58.976 40.1046C59.315 40.1046 59.6137 40.1893 59.8723 40.3588C60.1309 40.5283 60.3327 40.7685 60.4778 41.0795C60.6228 41.3905 60.6953 41.7574 60.6953 42.1803C60.6953 42.6066 60.6228 42.9761 60.4778 43.2889C60.3327 43.5999 60.1318 43.841 59.875 44.0123C59.6181 44.1817 59.322 44.2665 58.9865 44.2665C58.7279 44.2665 58.5208 44.2237 58.3653 44.1381C58.2098 44.0507 58.0902 43.952 58.0063 43.8419C57.9224 43.7301 57.8578 43.6375 57.8123 43.5641H57.7599V45.6922H57.1414ZM57.7494 42.1698C57.7494 42.4738 57.794 42.742 57.8831 42.9744C57.9722 43.205 58.1024 43.3859 58.2736 43.5169C58.4448 43.6462 58.6545 43.7109 58.9026 43.7109C59.1612 43.7109 59.377 43.6427 59.55 43.5064C59.7247 43.3684 59.8557 43.1832 59.9431 42.9508C60.0322 42.7167 60.0768 42.4563 60.0768 42.1698C60.0768 41.8867 60.0331 41.6316 59.9457 41.4045C59.8601 41.1756 59.7299 40.9948 59.5552 40.862C59.3822 40.7275 59.1647 40.6602 58.9026 40.6602C58.651 40.6602 58.4396 40.724 58.2684 40.8515C58.0971 40.9773 57.9678 41.1538 57.8805 41.3809C57.7931 41.6063 57.7494 41.8693 57.7494 42.1698ZM63.1589 44.2665C62.8234 44.2665 62.5273 44.1817 62.2704 44.0123C62.0136 43.841 61.8126 43.5999 61.6676 43.2889C61.5226 42.9761 61.4501 42.6066 61.4501 42.1803C61.4501 41.7574 61.5226 41.3905 61.6676 41.0795C61.8126 40.7685 62.0144 40.5283 62.273 40.3588C62.5316 40.1893 62.8304 40.1046 63.1694 40.1046C63.4315 40.1046 63.6385 40.1482 63.7905 40.2356C63.9443 40.3212 64.0613 40.4191 64.1417 40.5291C64.2238 40.6375 64.2876 40.7266 64.333 40.7965H64.3855V40.157H65.004V44.1826H64.4064V43.5641H64.333C64.2876 43.6375 64.223 43.7301 64.1391 43.8419C64.0552 43.952 63.9355 44.0507 63.78 44.1381C63.6245 44.2237 63.4175 44.2665 63.1589 44.2665ZM63.2428 43.7109C63.4909 43.7109 63.7005 43.6462 63.8718 43.5169C64.043 43.3859 64.1732 43.205 64.2623 42.9744C64.3514 42.742 64.3959 42.4738 64.3959 42.1698C64.3959 41.8693 64.3523 41.6063 64.2649 41.3809C64.1775 41.1538 64.0482 40.9773 63.877 40.8515C63.7058 40.724 63.4944 40.6602 63.2428 40.6602C62.9807 40.6602 62.7623 40.7275 62.5875 40.862C62.4146 40.9948 62.2844 41.1756 62.197 41.4045C62.1114 41.6316 62.0686 41.8867 62.0686 42.1698C62.0686 42.4563 62.1123 42.7167 62.1997 42.9508C62.2888 43.1832 62.4198 43.3684 62.5928 43.5064C62.7675 43.6427 62.9842 43.7109 63.2428 43.7109ZM66.8412 41.7609V44.1826H66.2227V40.157H66.8202V40.786H66.8726C66.967 40.5816 67.1103 40.4173 67.3025 40.2933C67.4947 40.1675 67.7428 40.1046 68.0468 40.1046C68.3194 40.1046 68.5579 40.1605 68.7623 40.2723C68.9667 40.3824 69.1257 40.5501 69.2393 40.7755C69.3529 40.9991 69.4096 41.2822 69.4096 41.6247V44.1826H68.7911V41.6666C68.7911 41.3503 68.709 41.104 68.5448 40.9275C68.3805 40.7493 68.1551 40.6602 67.8686 40.6602C67.6711 40.6602 67.4947 40.703 67.3392 40.7886C67.1854 40.8742 67.064 40.9991 66.9749 41.1634C66.8857 41.3276 66.8412 41.5268 66.8412 41.7609ZM70.7941 45.6922C70.6893 45.6922 70.5958 45.6835 70.5137 45.666C70.4316 45.6503 70.3748 45.6346 70.3433 45.6188L70.5006 45.0737C70.6508 45.1121 70.7836 45.1261 70.8989 45.1156C71.0143 45.1052 71.1165 45.0536 71.2056 44.961C71.2964 44.8702 71.3794 44.7225 71.4546 44.5181L71.5699 44.2036L70.0812 40.157H70.7522L71.8634 43.3649H71.9054L73.0166 40.157H73.6875L71.9787 44.7697C71.9019 44.9776 71.8066 45.1497 71.6931 45.286C71.5795 45.424 71.4476 45.5262 71.2973 45.5926C71.1488 45.659 70.9811 45.6922 70.7941 45.6922Z" fill="#9CA3AF"/>
<rect x="17.633" y="31.1747" width="197.16" height="21.0162" rx="2.89942" stroke="#D1D5DB" stroke-width="0.527167"/>
</g>
<path d="M19.6233 64.7557C19.2354 64.7557 18.9008 64.6701 18.6195 64.4989C18.34 64.3259 18.1242 64.0848 17.9722 63.7755C17.8219 63.4645 17.7468 63.1029 17.7468 62.6905C17.7468 62.2782 17.8219 61.9147 17.9722 61.6002C18.1242 61.284 18.3356 61.0376 18.6064 60.8611C18.879 60.6829 19.197 60.5938 19.5604 60.5938C19.7701 60.5938 19.9771 60.6288 20.1816 60.6987C20.386 60.7685 20.5721 60.8821 20.7398 61.0394C20.9075 61.1949 21.0412 61.401 21.1408 61.6579C21.2404 61.9147 21.2902 62.231 21.2902 62.6066V62.8687H18.1871V62.3341H20.6612C20.6612 62.1069 20.6158 61.9042 20.5249 61.726C20.4358 61.5478 20.3082 61.4072 20.1423 61.3041C19.978 61.201 19.7841 61.1494 19.5604 61.1494C19.3141 61.1494 19.1009 61.2106 18.9209 61.3329C18.7427 61.4535 18.6056 61.6107 18.5095 61.8047C18.4134 61.9986 18.3653 62.2065 18.3653 62.4284V62.7849C18.3653 63.0889 18.4177 63.3466 18.5226 63.558C18.6291 63.7677 18.7768 63.9276 18.9655 64.0376C19.1542 64.146 19.3735 64.2001 19.6233 64.2001C19.7858 64.2001 19.9326 64.1774 20.0636 64.132C20.1964 64.0848 20.3109 64.0149 20.407 63.9223C20.5031 63.828 20.5773 63.7109 20.6297 63.5711L21.2273 63.7388C21.1644 63.9415 21.0587 64.1197 20.9102 64.2735C20.7616 64.4255 20.5782 64.5443 20.3598 64.6299C20.1414 64.7138 19.8959 64.7557 19.6233 64.7557ZM22.6819 64.7138C22.5526 64.7138 22.4416 64.6675 22.349 64.5749C22.2564 64.4823 22.2101 64.3713 22.2101 64.2421C22.2101 64.1128 22.2564 64.0018 22.349 63.9092C22.4416 63.8166 22.5526 63.7703 22.6819 63.7703C22.8112 63.7703 22.9221 63.8166 23.0147 63.9092C23.1073 64.0018 23.1536 64.1128 23.1536 64.2421C23.1536 64.3277 23.1318 64.4063 23.0881 64.4779C23.0462 64.5496 22.9894 64.6072 22.9177 64.6509C22.8479 64.6928 22.7692 64.7138 22.6819 64.7138ZM25.8885 66.2654C25.5897 66.2654 25.3329 66.2269 25.118 66.15C24.903 66.0749 24.724 65.9753 24.5807 65.8513C24.4392 65.729 24.3265 65.5979 24.2426 65.4581L24.7353 65.1122C24.7912 65.1856 24.862 65.2694 24.9476 65.3638C25.0332 65.4599 25.1503 65.5429 25.2988 65.6128C25.4491 65.6844 25.6456 65.7202 25.8885 65.7202C26.2135 65.7202 26.4817 65.6416 26.6931 65.4843C26.9045 65.3271 27.0102 65.0807 27.0102 64.7453V63.9276H26.9578C26.9124 64.0009 26.8477 64.0918 26.7639 64.2001C26.6817 64.3067 26.5629 64.4019 26.4074 64.4858C26.2537 64.5679 26.0457 64.609 25.7837 64.609C25.4587 64.609 25.1669 64.5321 24.9083 64.3783C24.6514 64.2246 24.4479 64.0009 24.2976 63.7074C24.1491 63.4139 24.0749 63.0574 24.0749 62.6381C24.0749 62.2257 24.1474 61.8667 24.2924 61.5609C24.4374 61.2534 24.6392 61.0158 24.8978 60.848C25.1564 60.6786 25.4552 60.5938 25.7941 60.5938C26.0562 60.5938 26.2641 60.6375 26.4179 60.7249C26.5734 60.8105 26.6922 60.9083 26.7743 61.0184C26.8582 61.1267 26.9229 61.2158 26.9683 61.2857H27.0312V60.6462H27.6287V64.7872C27.6287 65.1331 27.5501 65.4145 27.3929 65.6311C27.2374 65.8495 27.0277 66.0094 26.7639 66.1107C26.5018 66.2138 26.21 66.2654 25.8885 66.2654ZM25.8675 64.0534C26.1156 64.0534 26.3253 63.9966 26.4965 63.883C26.6678 63.7694 26.7979 63.6061 26.887 63.3929C26.9761 63.1797 27.0207 62.9246 27.0207 62.6276C27.0207 62.3376 26.977 62.0816 26.8897 61.8597C26.8023 61.6378 26.673 61.4639 26.5018 61.3381C26.3305 61.2123 26.1191 61.1494 25.8675 61.1494C25.6054 61.1494 25.387 61.2158 25.2123 61.3486C25.0393 61.4814 24.9092 61.6596 24.8218 61.8833C24.7362 62.1069 24.6934 62.355 24.6934 62.6276C24.6934 62.9072 24.7371 63.1544 24.8244 63.3693C24.9135 63.5825 25.0446 63.7502 25.2175 63.8725C25.3923 63.9931 25.6089 64.0534 25.8675 64.0534ZM33.8559 60.6462C33.8244 60.3807 33.6969 60.1745 33.4733 60.0277C33.2496 59.8809 32.9753 59.8076 32.6503 59.8076C32.4127 59.8076 32.2048 59.846 32.0265 59.9229C31.8501 59.9998 31.712 60.1055 31.6124 60.24C31.5146 60.3745 31.4657 60.5274 31.4657 60.6987C31.4657 60.8419 31.4997 60.9651 31.5679 61.0682C31.6378 61.1695 31.7269 61.2543 31.8352 61.3224C31.9435 61.3888 32.0571 61.4439 32.1759 61.4875C32.2947 61.5295 32.4039 61.5635 32.5035 61.5897L33.0487 61.7365C33.1885 61.7732 33.344 61.8239 33.5152 61.8885C33.6882 61.9532 33.8533 62.0414 34.0105 62.1532C34.1695 62.2633 34.3006 62.4048 34.4037 62.5778C34.5067 62.7508 34.5583 62.9631 34.5583 63.2147C34.5583 63.5047 34.4823 63.7668 34.3303 64.0009C34.18 64.2351 33.9599 64.4211 33.6698 64.5592C33.3815 64.6972 33.0312 64.7662 32.6189 64.7662C32.2345 64.7662 31.9016 64.7042 31.6203 64.5801C31.3407 64.4561 31.1206 64.2831 30.9598 64.0612C30.8008 63.8393 30.7109 63.5816 30.6899 63.2881H31.3608C31.3783 63.4907 31.4465 63.6585 31.5653 63.7913C31.6858 63.9223 31.8378 64.0202 32.0213 64.0848C32.2065 64.1477 32.4057 64.1792 32.6189 64.1792C32.867 64.1792 33.0897 64.139 33.2872 64.0586C33.4846 63.9765 33.641 63.8629 33.7563 63.7179C33.8716 63.5711 33.9293 63.3999 33.9293 63.2042C33.9293 63.026 33.8795 62.881 33.7799 62.7691C33.6803 62.6573 33.5493 62.5665 33.3868 62.4966C33.2243 62.4267 33.0487 62.3655 32.86 62.3131L32.1995 62.1244C31.7802 62.0038 31.4482 61.8317 31.2036 61.6081C30.959 61.3844 30.8367 61.0918 30.8367 60.7301C30.8367 60.4296 30.9179 60.1675 31.0804 59.9438C31.2446 59.7185 31.4648 59.5437 31.7409 59.4197C32.0187 59.2939 32.3288 59.231 32.6713 59.231C33.0172 59.231 33.3247 59.293 33.5938 59.4171C33.8629 59.5394 34.076 59.7071 34.2333 59.9203C34.3923 60.1334 34.4762 60.3754 34.4849 60.6462H33.8559ZM37.2309 64.7557C36.843 64.7557 36.5084 64.6701 36.2271 64.4989C35.9476 64.3259 35.7318 64.0848 35.5798 63.7755C35.4295 63.4645 35.3544 63.1029 35.3544 62.6905C35.3544 62.2782 35.4295 61.9147 35.5798 61.6002C35.7318 61.284 35.9432 61.0376 36.214 60.8611C36.4866 60.6829 36.8046 60.5938 37.168 60.5938C37.3777 60.5938 37.5847 60.6288 37.7891 60.6987C37.9936 60.7685 38.1797 60.8821 38.3474 61.0394C38.5151 61.1949 38.6488 61.401 38.7484 61.6579C38.848 61.9147 38.8978 62.231 38.8978 62.6066V62.8687H35.7947V62.3341H38.2688C38.2688 62.1069 38.2233 61.9042 38.1325 61.726C38.0434 61.5478 37.9158 61.4072 37.7498 61.3041C37.5856 61.201 37.3917 61.1494 37.168 61.1494C36.9216 61.1494 36.7085 61.2106 36.5285 61.3329C36.3503 61.4535 36.2131 61.6107 36.117 61.8047C36.0209 61.9986 35.9729 62.2065 35.9729 62.4284V62.7849C35.9729 63.0889 36.0253 63.3466 36.1301 63.558C36.2367 63.7677 36.3844 63.9276 36.5731 64.0376C36.7618 64.146 36.9811 64.2001 37.2309 64.2001C37.3934 64.2001 37.5402 64.1774 37.6712 64.132C37.804 64.0848 37.9184 64.0149 38.0145 63.9223C38.1106 63.828 38.1849 63.7109 38.2373 63.5711L38.8349 63.7388C38.772 63.9415 38.6663 64.1197 38.5177 64.2735C38.3692 64.4255 38.1858 64.5443 37.9674 64.6299C37.749 64.7138 37.5035 64.7557 37.2309 64.7557ZM40.4572 62.2502V64.6719H39.8387V60.6462H40.4362V61.2752H40.4886C40.583 61.0708 40.7263 60.9066 40.9185 60.7825C41.1106 60.6567 41.3588 60.5938 41.6628 60.5938C41.9353 60.5938 42.1738 60.6497 42.3783 60.7616C42.5827 60.8716 42.7417 61.0394 42.8553 61.2648C42.9688 61.4884 43.0256 61.7715 43.0256 62.1139V64.6719H42.4071V62.1559C42.4071 61.8396 42.325 61.5932 42.1607 61.4168C41.9965 61.2386 41.7711 61.1494 41.4846 61.1494C41.2871 61.1494 41.1106 61.1922 40.9551 61.2779C40.8014 61.3635 40.68 61.4884 40.5908 61.6526C40.5017 61.8169 40.4572 62.0161 40.4572 62.2502ZM44.1559 64.6719V60.6462H44.7744V64.6719H44.1559ZM44.4704 59.9753C44.3498 59.9753 44.2459 59.9342 44.1585 59.8521C44.0729 59.77 44.0301 59.6713 44.0301 59.556C44.0301 59.4406 44.0729 59.3419 44.1585 59.2598C44.2459 59.1777 44.3498 59.1366 44.4704 59.1366C44.5909 59.1366 44.694 59.1777 44.7796 59.2598C44.867 59.3419 44.9107 59.4406 44.9107 59.556C44.9107 59.6713 44.867 59.77 44.7796 59.8521C44.694 59.9342 44.5909 59.9753 44.4704 59.9753ZM47.5427 64.7557C47.1792 64.7557 46.8604 64.6693 46.5861 64.4963C46.3135 64.3233 46.1003 64.0813 45.9466 63.7703C45.7946 63.4593 45.7186 63.0959 45.7186 62.68C45.7186 62.2607 45.7946 61.8946 45.9466 61.5819C46.1003 61.2691 46.3135 61.0263 46.5861 60.8533C46.8604 60.6803 47.1792 60.5938 47.5427 60.5938C47.9061 60.5938 48.2241 60.6803 48.4967 60.8533C48.771 61.0263 48.9841 61.2691 49.1362 61.5819C49.2899 61.8946 49.3668 62.2607 49.3668 62.68C49.3668 63.0959 49.2899 63.4593 49.1362 63.7703C48.9841 64.0813 48.771 64.3233 48.4967 64.4963C48.2241 64.6693 47.9061 64.7557 47.5427 64.7557ZM47.5427 64.2001C47.8187 64.2001 48.0459 64.1294 48.2241 63.9878C48.4023 63.8463 48.5342 63.6602 48.6198 63.4296C48.7055 63.199 48.7483 62.9491 48.7483 62.68C48.7483 62.4109 48.7055 62.1602 48.6198 61.9278C48.5342 61.6955 48.4023 61.5076 48.2241 61.3644C48.0459 61.2211 47.8187 61.1494 47.5427 61.1494C47.2666 61.1494 47.0395 61.2211 46.8613 61.3644C46.683 61.5076 46.5511 61.6955 46.4655 61.9278C46.3799 62.1602 46.3371 62.4109 46.3371 62.68C46.3371 62.9491 46.3799 63.199 46.4655 63.4296C46.5511 63.6602 46.683 63.8463 46.8613 63.9878C47.0395 64.1294 47.2666 64.2001 47.5427 64.2001ZM50.311 64.6719V60.6462H50.9085V61.2543H50.9504C51.0221 61.0551 51.154 60.8935 51.3462 60.7694C51.5384 60.6454 51.7559 60.5833 51.9988 60.5833C52.1106 60.5833 52.2085 60.5964 52.2923 60.6226C52.3762 60.6489 52.4496 60.6847 52.5125 60.7301L52.3028 61.2543C52.2591 61.2316 52.2076 61.2141 52.1482 61.2019C52.0905 61.1879 52.0232 61.1809 51.9464 61.1809C51.7507 61.1809 51.576 61.222 51.4222 61.3041C51.2702 61.3862 51.1496 61.498 51.0605 61.6395C50.9732 61.7811 50.9295 61.9427 50.9295 62.1244V64.6719H50.311ZM57.253 62.9945H57.9658L58.5634 63.7808L58.7206 63.9905L59.6117 65.1751H58.8989L58.3118 64.3888L58.165 64.1896L57.253 62.9945ZM59.8319 61.9881C59.8319 62.5542 59.7297 63.0434 59.5252 63.4558C59.3208 63.8681 59.0404 64.1861 58.6839 64.4098C58.3275 64.6334 57.9204 64.7453 57.4626 64.7453C57.0048 64.7453 56.5977 64.6334 56.2413 64.4098C55.8849 64.1861 55.6044 63.8681 55.4 63.4558C55.1956 63.0434 55.0934 62.5542 55.0934 61.9881C55.0934 61.422 55.1956 60.9328 55.4 60.5204C55.6044 60.1081 55.8849 59.7901 56.2413 59.5664C56.5977 59.3428 57.0048 59.231 57.4626 59.231C57.9204 59.231 58.3275 59.3428 58.6839 59.5664C59.0404 59.7901 59.3208 60.1081 59.5252 60.5204C59.7297 60.9328 59.8319 61.422 59.8319 61.9881ZM59.2029 61.9881C59.2029 61.5234 59.1251 61.1311 58.9696 60.8114C58.8159 60.4916 58.6071 60.2496 58.3432 60.0854C58.0811 59.9211 57.7876 59.839 57.4626 59.839C57.1376 59.839 56.8432 59.9211 56.5794 60.0854C56.3173 60.2496 56.1085 60.4916 55.953 60.8114C55.7992 61.1311 55.7224 61.5234 55.7224 61.9881C55.7224 62.4529 55.7992 62.8451 55.953 63.1649C56.1085 63.4846 56.3173 63.7266 56.5794 63.8909C56.8432 64.0551 57.1376 64.1372 57.4626 64.1372C57.7876 64.1372 58.0811 64.0551 58.3432 63.8909C58.6071 63.7266 58.8159 63.4846 58.9696 63.1649C59.1251 62.8451 59.2029 62.4529 59.2029 61.9881ZM60.8927 64.6719H60.2112L62.1821 59.3044H62.8531L64.824 64.6719H64.1425L62.5386 60.1535H62.4966L60.8927 64.6719ZM61.1443 62.5752H63.8909V63.1518H61.1443V62.5752ZM67.7357 64.6719V59.3044H70.9751V59.8809H68.3857V61.6946H70.8074V62.2712H68.3857V64.0953H71.0171V64.6719H67.7357ZM72.6813 62.2502V64.6719H72.0628V60.6462H72.6603V61.2752H72.7127C72.8071 61.0708 72.9504 60.9066 73.1426 60.7825C73.3348 60.6567 73.5829 60.5938 73.8869 60.5938C74.1595 60.5938 74.398 60.6497 74.6024 60.7616C74.8068 60.8716 74.9658 61.0394 75.0794 61.2648C75.193 61.4884 75.2497 61.7715 75.2497 62.1139V64.6719H74.6312V62.1559C74.6312 61.8396 74.5491 61.5932 74.3849 61.4168C74.2206 61.2386 73.9952 61.1494 73.7087 61.1494C73.5112 61.1494 73.3348 61.1922 73.1793 61.2779C73.0255 61.3635 72.9041 61.4884 72.815 61.6526C72.7258 61.8169 72.6813 62.0161 72.6813 62.2502ZM78.0049 66.2654C77.7061 66.2654 77.4493 66.2269 77.2344 66.15C77.0195 66.0749 76.8404 65.9753 76.6971 65.8513C76.5556 65.729 76.4429 65.5979 76.359 65.4581L76.8517 65.1122C76.9076 65.1856 76.9784 65.2694 77.064 65.3638C77.1496 65.4599 77.2667 65.5429 77.4152 65.6128C77.5655 65.6844 77.762 65.7202 78.0049 65.7202C78.3299 65.7202 78.5981 65.6416 78.8095 65.4843C79.0209 65.3271 79.1266 65.0807 79.1266 64.7453V63.9276H79.0742C79.0288 64.0009 78.9641 64.0918 78.8803 64.2001C78.7982 64.3067 78.6793 64.4019 78.5238 64.4858C78.3701 64.5679 78.1622 64.609 77.9001 64.609C77.5751 64.609 77.2833 64.5321 77.0247 64.3783C76.7679 64.2246 76.5643 64.0009 76.414 63.7074C76.2655 63.4139 76.1913 63.0574 76.1913 62.6381C76.1913 62.2257 76.2638 61.8667 76.4088 61.5609C76.5538 61.2534 76.7556 61.0158 77.0142 60.848C77.2728 60.6786 77.5716 60.5938 77.9106 60.5938C78.1726 60.5938 78.3806 60.6375 78.5343 60.7249C78.6898 60.8105 78.8086 60.9083 78.8908 61.0184C78.9746 61.1267 79.0393 61.2158 79.0847 61.2857H79.1476V60.6462H79.7452V64.7872C79.7452 65.1331 79.6665 65.4145 79.5093 65.6311C79.3538 65.8495 79.1441 66.0094 78.8803 66.1107C78.6182 66.2138 78.3264 66.2654 78.0049 66.2654ZM77.9839 64.0534C78.2321 64.0534 78.4417 63.9966 78.613 63.883C78.7842 63.7694 78.9143 63.6061 79.0035 63.3929C79.0926 63.1797 79.1371 62.9246 79.1371 62.6276C79.1371 62.3376 79.0934 62.0816 79.0061 61.8597C78.9187 61.6378 78.7894 61.4639 78.6182 61.3381C78.447 61.2123 78.2355 61.1494 77.9839 61.1494C77.7219 61.1494 77.5035 61.2158 77.3287 61.3486C77.1558 61.4814 77.0256 61.6596 76.9382 61.8833C76.8526 62.1069 76.8098 62.355 76.8098 62.6276C76.8098 62.9072 76.8535 63.1544 76.9408 63.3693C77.03 63.5825 77.161 63.7502 77.334 63.8725C77.5087 63.9931 77.7254 64.0534 77.9839 64.0534ZM80.8774 64.6719V60.6462H81.4959V64.6719H80.8774ZM81.1919 59.9753C81.0713 59.9753 80.9674 59.9342 80.88 59.8521C80.7944 59.77 80.7516 59.6713 80.7516 59.556C80.7516 59.4406 80.7944 59.3419 80.88 59.2598C80.9674 59.1777 81.0713 59.1366 81.1919 59.1366C81.3124 59.1366 81.4155 59.1777 81.5011 59.2598C81.5885 59.3419 81.6322 59.4406 81.6322 59.556C81.6322 59.6713 81.5885 59.77 81.5011 59.8521C81.4155 59.9342 81.3124 59.9753 81.1919 59.9753ZM83.2473 62.2502V64.6719H82.6288V60.6462H83.2263V61.2752H83.2787C83.3731 61.0708 83.5164 60.9066 83.7086 60.7825C83.9008 60.6567 84.1489 60.5938 84.4529 60.5938C84.7255 60.5938 84.964 60.6497 85.1684 60.7616C85.3728 60.8716 85.5318 61.0394 85.6454 61.2648C85.7589 61.4884 85.8157 61.7715 85.8157 62.1139V64.6719H85.1972V62.1559C85.1972 61.8396 85.1151 61.5932 84.9508 61.4168C84.7866 61.2386 84.5612 61.1494 84.2747 61.1494C84.0772 61.1494 83.9008 61.1922 83.7453 61.2779C83.5915 61.3635 83.4701 61.4884 83.381 61.6526C83.2918 61.8169 83.2473 62.0161 83.2473 62.2502ZM88.6338 64.7557C88.2459 64.7557 87.9113 64.6701 87.63 64.4989C87.3505 64.3259 87.1347 64.0848 86.9827 63.7755C86.8324 63.4645 86.7573 63.1029 86.7573 62.6905C86.7573 62.2782 86.8324 61.9147 86.9827 61.6002C87.1347 61.284 87.3461 61.0376 87.6169 60.8611C87.8895 60.6829 88.2075 60.5938 88.5709 60.5938C88.7806 60.5938 88.9876 60.6288 89.192 60.6987C89.3965 60.7685 89.5826 60.8821 89.7503 61.0394C89.918 61.1949 90.0517 61.401 90.1513 61.6579C90.2509 61.9147 90.3007 62.231 90.3007 62.6066V62.8687H87.1976V62.3341H89.6717C89.6717 62.1069 89.6262 61.9042 89.5354 61.726C89.4463 61.5478 89.3187 61.4072 89.1527 61.3041C88.9885 61.201 88.7946 61.1494 88.5709 61.1494C88.3245 61.1494 88.1114 61.2106 87.9314 61.3329C87.7532 61.4535 87.616 61.6107 87.5199 61.8047C87.4238 61.9986 87.3758 62.2065 87.3758 62.4284V62.7849C87.3758 63.0889 87.4282 63.3466 87.533 63.558C87.6396 63.7677 87.7873 63.9276 87.976 64.0376C88.1647 64.146 88.384 64.2001 88.6338 64.2001C88.7963 64.2001 88.9431 64.1774 89.0741 64.132C89.2069 64.0848 89.3213 64.0149 89.4174 63.9223C89.5135 63.828 89.5878 63.7109 89.6402 63.5711L90.2378 63.7388C90.1749 63.9415 90.0692 64.1197 89.9206 64.2735C89.7721 64.4255 89.5887 64.5443 89.3703 64.6299C89.1519 64.7138 88.9064 64.7557 88.6338 64.7557ZM92.9294 64.7557C92.5415 64.7557 92.2069 64.6701 91.9256 64.4989C91.646 64.3259 91.4303 64.0848 91.2783 63.7755C91.128 63.4645 91.0529 63.1029 91.0529 62.6905C91.0529 62.2782 91.128 61.9147 91.2783 61.6002C91.4303 61.284 91.6417 61.0376 91.9125 60.8611C92.1851 60.6829 92.5031 60.5938 92.8665 60.5938C93.0762 60.5938 93.2832 60.6288 93.4876 60.6987C93.6921 60.7685 93.8781 60.8821 94.0459 61.0394C94.2136 61.1949 94.3473 61.401 94.4469 61.6579C94.5465 61.9147 94.5963 62.231 94.5963 62.6066V62.8687H91.4932V62.3341H93.9673C93.9673 62.1069 93.9218 61.9042 93.831 61.726C93.7419 61.5478 93.6143 61.4072 93.4483 61.3041C93.2841 61.201 93.0901 61.1494 92.8665 61.1494C92.6201 61.1494 92.407 61.2106 92.227 61.3329C92.0488 61.4535 91.9116 61.6107 91.8155 61.8047C91.7194 61.9986 91.6714 62.2065 91.6714 62.4284V62.7849C91.6714 63.0889 91.7238 63.3466 91.8286 63.558C91.9352 63.7677 92.0829 63.9276 92.2716 64.0376C92.4603 64.146 92.6795 64.2001 92.9294 64.2001C93.0919 64.2001 93.2387 64.1774 93.3697 64.132C93.5025 64.0848 93.6169 64.0149 93.713 63.9223C93.8091 63.828 93.8834 63.7109 93.9358 63.5711L94.5334 63.7388C94.4705 63.9415 94.3647 64.1197 94.2162 64.2735C94.0677 64.4255 93.8843 64.5443 93.6659 64.6299C93.4474 64.7138 93.202 64.7557 92.9294 64.7557ZM95.5371 64.6719V60.6462H96.1347V61.2543H96.1766C96.2483 61.0551 96.3802 60.8935 96.5724 60.7694C96.7646 60.6454 96.9821 60.5833 97.225 60.5833C97.3368 60.5833 97.4346 60.5964 97.5185 60.6226C97.6024 60.6489 97.6758 60.6847 97.7387 60.7301L97.529 61.2543C97.4853 61.2316 97.4338 61.2141 97.3744 61.2019C97.3167 61.1879 97.2494 61.1809 97.1726 61.1809C96.9769 61.1809 96.8021 61.222 96.6484 61.3041C96.4964 61.3862 96.3758 61.498 96.2867 61.6395C96.1993 61.7811 96.1557 61.9427 96.1557 62.1244V64.6719H95.5371ZM100.445 66.1815V60.6462H101.043V61.2857H101.116C101.162 61.2158 101.225 61.1267 101.305 61.0184C101.387 60.9083 101.504 60.8105 101.656 60.7249C101.81 60.6375 102.018 60.5938 102.28 60.5938C102.619 60.5938 102.918 60.6786 103.176 60.848C103.435 61.0175 103.637 61.2578 103.782 61.5688C103.927 61.8798 103.999 62.2467 103.999 62.6695C103.999 63.0959 103.927 63.4654 103.782 63.7782C103.637 64.0892 103.436 64.3303 103.179 64.5015C102.922 64.671 102.626 64.7557 102.29 64.7557C102.032 64.7557 101.825 64.7129 101.669 64.6273C101.514 64.54 101.394 64.4412 101.31 64.3312C101.226 64.2193 101.162 64.1267 101.116 64.0534H101.064V66.1815H100.445ZM101.053 62.6591C101.053 62.9631 101.098 63.2313 101.187 63.4637C101.276 63.6943 101.406 63.8751 101.578 64.0062C101.749 64.1355 101.958 64.2001 102.207 64.2001C102.465 64.2001 102.681 64.132 102.854 63.9957C103.029 63.8577 103.16 63.6725 103.247 63.4401C103.336 63.2059 103.381 62.9456 103.381 62.6591C103.381 62.376 103.337 62.1209 103.25 61.8938C103.164 61.6649 103.034 61.484 102.859 61.3512C102.686 61.2167 102.469 61.1494 102.207 61.1494C101.955 61.1494 101.744 61.2132 101.572 61.3408C101.401 61.4666 101.272 61.643 101.184 61.8702C101.097 62.0956 101.053 62.3585 101.053 62.6591ZM104.943 64.6719V60.6462H105.54V61.2543H105.582C105.654 61.0551 105.786 60.8935 105.978 60.7694C106.17 60.6454 106.388 60.5833 106.631 60.5833C106.742 60.5833 106.84 60.5964 106.924 60.6226C107.008 60.6489 107.081 60.6847 107.144 60.7301L106.935 61.2543C106.891 61.2316 106.839 61.2141 106.78 61.2019C106.722 61.1879 106.655 61.1809 106.578 61.1809C106.382 61.1809 106.208 61.222 106.054 61.3041C105.902 61.3862 105.781 61.498 105.692 61.6395C105.605 61.7811 105.561 61.9427 105.561 62.1244V64.6719H104.943ZM109.288 64.7557C108.925 64.7557 108.606 64.6693 108.332 64.4963C108.059 64.3233 107.846 64.0813 107.692 63.7703C107.54 63.4593 107.464 63.0959 107.464 62.68C107.464 62.2607 107.54 61.8946 107.692 61.5819C107.846 61.2691 108.059 61.0263 108.332 60.8533C108.606 60.6803 108.925 60.5938 109.288 60.5938C109.652 60.5938 109.97 60.6803 110.242 60.8533C110.516 61.0263 110.73 61.2691 110.882 61.5819C111.035 61.8946 111.112 62.2607 111.112 62.68C111.112 63.0959 111.035 63.4593 110.882 63.7703C110.73 64.0813 110.516 64.3233 110.242 64.4963C109.97 64.6693 109.652 64.7557 109.288 64.7557ZM109.288 64.2001C109.564 64.2001 109.791 64.1294 109.97 63.9878C110.148 63.8463 110.28 63.6602 110.365 63.4296C110.451 63.199 110.494 62.9491 110.494 62.68C110.494 62.4109 110.451 62.1602 110.365 61.9278C110.28 61.6955 110.148 61.5076 109.97 61.3644C109.791 61.2211 109.564 61.1494 109.288 61.1494C109.012 61.1494 108.785 61.2211 108.607 61.3644C108.428 61.5076 108.297 61.6955 108.211 61.9278C108.125 62.1602 108.083 62.4109 108.083 62.68C108.083 62.9491 108.125 63.199 108.211 63.4296C108.297 63.6602 108.428 63.8463 108.607 63.9878C108.785 64.1294 109.012 64.2001 109.288 64.2001ZM113.849 60.6462V61.1704H111.679V60.6462H113.849ZM112.329 64.6719V60.0906C112.329 59.86 112.383 59.6678 112.491 59.514C112.6 59.3603 112.74 59.245 112.913 59.1681C113.086 59.0912 113.269 59.0528 113.461 59.0528C113.613 59.0528 113.737 59.065 113.833 59.0894C113.929 59.1139 114.001 59.1366 114.048 59.1576L113.87 59.6922C113.839 59.6818 113.795 59.6687 113.739 59.6529C113.685 59.6372 113.613 59.6293 113.524 59.6293C113.32 59.6293 113.172 59.6809 113.081 59.784C112.992 59.8871 112.948 60.0382 112.948 60.2374V64.6719H112.329ZM114.716 64.6719V60.6462H115.334V64.6719H114.716ZM115.03 59.9753C114.91 59.9753 114.806 59.9342 114.719 59.8521C114.633 59.77 114.59 59.6713 114.59 59.556C114.59 59.4406 114.633 59.3419 114.719 59.2598C114.806 59.1777 114.91 59.1366 115.03 59.1366C115.151 59.1366 115.254 59.1777 115.34 59.2598C115.427 59.3419 115.471 59.4406 115.471 59.556C115.471 59.6713 115.427 59.77 115.34 59.8521C115.254 59.9342 115.151 59.9753 115.03 59.9753ZM118.103 64.7557C117.725 64.7557 117.4 64.6666 117.128 64.4884C116.855 64.3102 116.646 64.0647 116.499 63.752C116.352 63.4392 116.279 63.0819 116.279 62.68C116.279 62.2712 116.354 61.9104 116.504 61.5976C116.656 61.2831 116.867 61.0376 117.138 60.8611C117.411 60.6829 117.729 60.5938 118.092 60.5938C118.375 60.5938 118.63 60.6462 118.858 60.7511C119.085 60.8559 119.271 61.0027 119.416 61.1914C119.561 61.3801 119.651 61.6002 119.686 61.8518H119.067C119.02 61.6684 118.915 61.5059 118.753 61.3644C118.592 61.2211 118.375 61.1494 118.103 61.1494C117.862 61.1494 117.65 61.2123 117.468 61.3381C117.289 61.4622 117.148 61.6378 117.047 61.8649C116.947 62.0903 116.897 62.355 116.897 62.6591C116.897 62.9701 116.946 63.2409 117.044 63.4715C117.144 63.7022 117.283 63.8812 117.463 64.0088C117.645 64.1363 117.858 64.2001 118.103 64.2001C118.263 64.2001 118.409 64.1722 118.54 64.1163C118.671 64.0603 118.782 63.98 118.873 63.8751C118.964 63.7703 119.029 63.6445 119.067 63.4977H119.686C119.651 63.7354 119.564 63.9494 119.426 64.1398C119.29 64.3285 119.109 64.4788 118.884 64.5906C118.66 64.7007 118.4 64.7557 118.103 64.7557ZM120.59 64.6719V60.6462H121.208V64.6719H120.59ZM120.904 59.9753C120.784 59.9753 120.68 59.9342 120.593 59.8521C120.507 59.77 120.464 59.6713 120.464 59.556C120.464 59.4406 120.507 59.3419 120.593 59.2598C120.68 59.1777 120.784 59.1366 120.904 59.1366C121.025 59.1366 121.128 59.1777 121.214 59.2598C121.301 59.3419 121.345 59.4406 121.345 59.556C121.345 59.6713 121.301 59.77 121.214 59.8521C121.128 59.9342 121.025 59.9753 120.904 59.9753ZM124.029 64.7557C123.641 64.7557 123.307 64.6701 123.025 64.4989C122.746 64.3259 122.53 64.0848 122.378 63.7755C122.228 63.4645 122.153 63.1029 122.153 62.6905C122.153 62.2782 122.228 61.9147 122.378 61.6002C122.53 61.284 122.741 61.0376 123.012 60.8611C123.285 60.6829 123.603 60.5938 123.966 60.5938C124.176 60.5938 124.383 60.6288 124.587 60.6987C124.792 60.7685 124.978 60.8821 125.146 61.0394C125.313 61.1949 125.447 61.401 125.547 61.6579C125.646 61.9147 125.696 62.231 125.696 62.6066V62.8687H122.593V62.3341H125.067C125.067 62.1069 125.022 61.9042 124.931 61.726C124.842 61.5478 124.714 61.4072 124.548 61.3041C124.384 61.201 124.19 61.1494 123.966 61.1494C123.72 61.1494 123.507 61.2106 123.327 61.3329C123.149 61.4535 123.011 61.6107 122.915 61.8047C122.819 61.9986 122.771 62.2065 122.771 62.4284V62.7849C122.771 63.0889 122.824 63.3466 122.928 63.558C123.035 63.7677 123.183 63.9276 123.371 64.0376C123.56 64.146 123.779 64.2001 124.029 64.2001C124.192 64.2001 124.338 64.1774 124.469 64.132C124.602 64.0848 124.717 64.0149 124.813 63.9223C124.909 63.828 124.983 63.7109 125.036 63.5711L125.633 63.7388C125.57 63.9415 125.465 64.1197 125.316 64.2735C125.167 64.4255 124.984 64.5443 124.766 64.6299C124.547 64.7138 124.302 64.7557 124.029 64.7557ZM127.255 62.2502V64.6719H126.637V60.6462H127.234V61.2752H127.287C127.381 61.0708 127.525 60.9066 127.717 60.7825C127.909 60.6567 128.157 60.5938 128.461 60.5938C128.734 60.5938 128.972 60.6497 129.177 60.7616C129.381 60.8716 129.54 61.0394 129.654 61.2648C129.767 61.4884 129.824 61.7715 129.824 62.1139V64.6719H129.205V62.1559C129.205 61.8396 129.123 61.5932 128.959 61.4168C128.795 61.2386 128.569 61.1494 128.283 61.1494C128.085 61.1494 127.909 61.1922 127.753 61.2779C127.6 61.3635 127.478 61.4884 127.389 61.6526C127.3 61.8169 127.255 62.0161 127.255 62.2502ZM132.705 60.6462V61.1704H130.619V60.6462H132.705ZM131.227 59.6818H131.845V63.5187C131.845 63.6934 131.871 63.8245 131.921 63.9118C131.974 63.9974 132.04 64.0551 132.12 64.0848C132.203 64.1128 132.289 64.1267 132.38 64.1267C132.448 64.1267 132.504 64.1232 132.548 64.1163C132.591 64.1075 132.626 64.1005 132.652 64.0953L132.778 64.6509C132.736 64.6666 132.678 64.6824 132.603 64.6981C132.528 64.7156 132.432 64.7243 132.317 64.7243C132.142 64.7243 131.971 64.6867 131.803 64.6116C131.637 64.5365 131.499 64.422 131.389 64.2683C131.281 64.1145 131.227 63.9206 131.227 63.6864V59.6818ZM135.711 64.6719V60.6462H136.329V64.6719H135.711ZM136.025 59.9753C135.905 59.9753 135.801 59.9342 135.714 59.8521C135.628 59.77 135.585 59.6713 135.585 59.556C135.585 59.4406 135.628 59.3419 135.714 59.2598C135.801 59.1777 135.905 59.1366 136.025 59.1366C136.146 59.1366 136.249 59.1777 136.335 59.2598C136.422 59.3419 136.466 59.4406 136.466 59.556C136.466 59.6713 136.422 59.77 136.335 59.8521C136.249 59.9342 136.146 59.9753 136.025 59.9753ZM138.081 62.2502V64.6719H137.462V60.6462H138.06V61.2752H138.112C138.207 61.0708 138.35 60.9066 138.542 60.7825C138.734 60.6567 138.982 60.5938 139.286 60.5938C139.559 60.5938 139.798 60.6497 140.002 60.7616C140.206 60.8716 140.365 61.0394 140.479 61.2648C140.593 61.4884 140.649 61.7715 140.649 62.1139V64.6719H140.031V62.1559C140.031 61.8396 139.949 61.5932 139.784 61.4168C139.62 61.2386 139.395 61.1494 139.108 61.1494C138.911 61.1494 138.734 61.1922 138.579 61.2779C138.425 61.3635 138.304 61.4884 138.215 61.6526C138.125 61.8169 138.081 62.0161 138.081 62.2502ZM146.875 60.6462C146.843 60.3807 146.716 60.1745 146.492 60.0277C146.268 59.8809 145.994 59.8076 145.669 59.8076C145.431 59.8076 145.223 59.846 145.045 59.9229C144.869 59.9998 144.731 60.1055 144.631 60.24C144.533 60.3745 144.484 60.5274 144.484 60.6987C144.484 60.8419 144.518 60.9651 144.587 61.0682C144.656 61.1695 144.746 61.2543 144.854 61.3224C144.962 61.3888 145.076 61.4439 145.195 61.4875C145.313 61.5295 145.423 61.5635 145.522 61.5897L146.067 61.7365C146.207 61.7732 146.363 61.8239 146.534 61.8885C146.707 61.9532 146.872 62.0414 147.029 62.1532C147.188 62.2633 147.319 62.4048 147.422 62.5778C147.525 62.7508 147.577 62.9631 147.577 63.2147C147.577 63.5047 147.501 63.7668 147.349 64.0009C147.199 64.2351 146.978 64.4211 146.688 64.5592C146.4 64.6972 146.05 64.7662 145.637 64.7662C145.253 64.7662 144.92 64.7042 144.639 64.5801C144.359 64.4561 144.139 64.2831 143.978 64.0612C143.819 63.8393 143.729 63.5816 143.709 63.2881H144.379C144.397 63.4907 144.465 63.6585 144.584 63.7913C144.704 63.9223 144.856 64.0202 145.04 64.0848C145.225 64.1477 145.424 64.1792 145.637 64.1792C145.886 64.1792 146.108 64.139 146.306 64.0586C146.503 63.9765 146.66 63.8629 146.775 63.7179C146.89 63.5711 146.948 63.3999 146.948 63.2042C146.948 63.026 146.898 62.881 146.799 62.7691C146.699 62.6573 146.568 62.5665 146.405 62.4966C146.243 62.4267 146.067 62.3655 145.879 62.3131L145.218 62.1244C144.799 62.0038 144.467 61.8317 144.222 61.6081C143.978 61.3844 143.855 61.0918 143.855 60.7301C143.855 60.4296 143.937 60.1675 144.099 59.9438C144.263 59.7185 144.483 59.5437 144.759 59.4197C145.037 59.2939 145.347 59.231 145.69 59.231C146.036 59.231 146.343 59.293 146.612 59.4171C146.882 59.5394 147.095 59.7071 147.252 59.9203C147.411 60.1334 147.495 60.3754 147.504 60.6462H146.875ZM150.25 64.7557C149.862 64.7557 149.527 64.6701 149.246 64.4989C148.966 64.3259 148.75 64.0848 148.598 63.7755C148.448 63.4645 148.373 63.1029 148.373 62.6905C148.373 62.2782 148.448 61.9147 148.598 61.6002C148.75 61.284 148.962 61.0376 149.233 60.8611C149.505 60.6829 149.823 60.5938 150.187 60.5938C150.396 60.5938 150.603 60.6288 150.808 60.6987C151.012 60.7685 151.198 60.8821 151.366 61.0394C151.534 61.1949 151.667 61.401 151.767 61.6579C151.867 61.9147 151.916 62.231 151.916 62.6066V62.8687H148.813V62.3341H151.287C151.287 62.1069 151.242 61.9042 151.151 61.726C151.062 61.5478 150.934 61.4072 150.768 61.3041C150.604 61.201 150.41 61.1494 150.187 61.1494C149.94 61.1494 149.727 61.2106 149.547 61.3329C149.369 61.4535 149.232 61.6107 149.136 61.8047C149.04 61.9986 148.992 62.2065 148.992 62.4284V62.7849C148.992 63.0889 149.044 63.3466 149.149 63.558C149.255 63.7677 149.403 63.9276 149.592 64.0376C149.78 64.146 150 64.2001 150.25 64.2001C150.412 64.2001 150.559 64.1774 150.69 64.132C150.823 64.0848 150.937 64.0149 151.033 63.9223C151.129 63.828 151.204 63.7109 151.256 63.5711L151.853 63.7388C151.791 63.9415 151.685 64.1197 151.536 64.2735C151.388 64.4255 151.204 64.5443 150.986 64.6299C150.768 64.7138 150.522 64.7557 150.25 64.7557ZM152.857 59.3044H153.476V63.6235C153.476 63.8192 153.498 63.9564 153.541 64.035C153.585 64.1136 153.675 64.1512 153.811 64.1477C153.885 64.1442 153.939 64.139 153.974 64.132C154.01 64.1232 154.044 64.1145 154.073 64.1058L154.199 64.6404C154.145 64.6561 154.077 64.6701 153.995 64.6824C153.913 64.6963 153.827 64.7033 153.738 64.7033C153.444 64.7033 153.224 64.623 153.077 64.4622C152.931 64.3015 152.857 64.0778 152.857 63.7913V59.3044ZM156.455 64.7557C156.067 64.7557 155.733 64.6701 155.451 64.4989C155.172 64.3259 154.956 64.0848 154.804 63.7755C154.654 63.4645 154.579 63.1029 154.579 62.6905C154.579 62.2782 154.654 61.9147 154.804 61.6002C154.956 61.284 155.167 61.0376 155.438 60.8611C155.711 60.6829 156.029 60.5938 156.392 60.5938C156.602 60.5938 156.809 60.6288 157.013 60.6987C157.218 60.7685 157.404 60.8821 157.572 61.0394C157.739 61.1949 157.873 61.401 157.973 61.6579C158.072 61.9147 158.122 62.231 158.122 62.6066V62.8687H155.019V62.3341H157.493C157.493 62.1069 157.447 61.9042 157.357 61.726C157.268 61.5478 157.14 61.4072 156.974 61.3041C156.81 61.201 156.616 61.1494 156.392 61.1494C156.146 61.1494 155.933 61.2106 155.753 61.3329C155.574 61.4535 155.437 61.6107 155.341 61.8047C155.245 61.9986 155.197 62.2065 155.197 62.4284V62.7849C155.197 63.0889 155.249 63.3466 155.354 63.558C155.461 63.7677 155.609 63.9276 155.797 64.0376C155.986 64.146 156.205 64.2001 156.455 64.2001C156.618 64.2001 156.764 64.1774 156.895 64.132C157.028 64.0848 157.143 64.0149 157.239 63.9223C157.335 63.828 157.409 63.7109 157.461 63.5711L158.059 63.7388C157.996 63.9415 157.89 64.1197 157.742 64.2735C157.593 64.4255 157.41 64.5443 157.192 64.6299C156.973 64.7138 156.728 64.7557 156.455 64.7557ZM159.681 62.2502V64.6719H159.063V60.6462H159.66V61.2752H159.713C159.807 61.0708 159.95 60.9066 160.143 60.7825C160.335 60.6567 160.583 60.5938 160.887 60.5938C161.16 60.5938 161.398 60.6497 161.602 60.7616C161.807 60.8716 161.966 61.0394 162.079 61.2648C162.193 61.4884 162.25 61.7715 162.25 62.1139V64.6719H161.631V62.1559C161.631 61.8396 161.549 61.5932 161.385 61.4168C161.221 61.2386 160.995 61.1494 160.709 61.1494C160.511 61.1494 160.335 61.1922 160.179 61.2779C160.026 61.3635 159.904 61.4884 159.815 61.6526C159.726 61.8169 159.681 62.0161 159.681 62.2502ZM163.38 64.6719V60.6462H163.999V64.6719H163.38ZM163.695 59.9753C163.574 59.9753 163.47 59.9342 163.383 59.8521C163.297 59.77 163.254 59.6713 163.254 59.556C163.254 59.4406 163.297 59.3419 163.383 59.2598C163.47 59.1777 163.574 59.1366 163.695 59.1366C163.815 59.1366 163.918 59.1777 164.004 59.2598C164.091 59.3419 164.135 59.4406 164.135 59.556C164.135 59.6713 164.091 59.77 164.004 59.8521C163.918 59.9342 163.815 59.9753 163.695 59.9753ZM167.668 63.026V60.6462H168.287V64.6719H167.668V63.9905H167.626C167.532 64.1949 167.385 64.3687 167.186 64.512C166.987 64.6535 166.735 64.7243 166.431 64.7243C166.18 64.7243 165.956 64.6693 165.76 64.5592C165.565 64.4474 165.411 64.2796 165.299 64.056C165.187 63.8306 165.131 63.5467 165.131 63.2042V60.6462H165.75V63.1623C165.75 63.4558 165.832 63.6899 165.996 63.8647C166.162 64.0394 166.374 64.1267 166.631 64.1267C166.784 64.1267 166.941 64.0874 167.1 64.0088C167.26 63.9302 167.395 63.8096 167.503 63.6471C167.613 63.4846 167.668 63.2776 167.668 63.026ZM169.42 64.6719V60.6462H170.017V61.2752H170.07C170.154 61.0603 170.289 60.8935 170.476 60.7747C170.663 60.6541 170.887 60.5938 171.15 60.5938C171.415 60.5938 171.636 60.6541 171.813 60.7747C171.991 60.8935 172.13 61.0603 172.229 61.2752H172.271C172.374 61.0673 172.529 60.9022 172.735 60.7799C172.941 60.6558 173.189 60.5938 173.477 60.5938C173.837 60.5938 174.131 60.7065 174.36 60.9319C174.589 61.1556 174.703 61.5041 174.703 61.9776V64.6719H174.085V61.9776C174.085 61.6806 174.004 61.4683 173.841 61.3408C173.679 61.2132 173.487 61.1494 173.267 61.1494C172.984 61.1494 172.765 61.2351 172.609 61.4063C172.454 61.5758 172.376 61.7907 172.376 62.051V64.6719H171.747V61.9147C171.747 61.6858 171.673 61.5015 171.524 61.3617C171.376 61.2202 171.185 61.1494 170.95 61.1494C170.79 61.1494 170.639 61.1922 170.5 61.2779C170.362 61.3635 170.25 61.4823 170.164 61.6343C170.08 61.7846 170.038 61.9584 170.038 62.1559V64.6719H169.42Z" fill="#6B7280"/>
<path d="M17.9591 86.2151V80.8476H19.8723C20.2899 80.8476 20.6358 80.9236 20.9102 81.0756C21.1845 81.2276 21.3898 81.4355 21.5261 81.6993C21.6624 81.9614 21.7305 82.2567 21.7305 82.5852C21.7305 82.9154 21.6615 83.2125 21.5234 83.4763C21.3872 83.7384 21.181 83.9463 20.9049 84.1001C20.6306 84.2521 20.2855 84.3281 19.8697 84.3281H18.554V83.6414H19.7963C20.0601 83.6414 20.2742 83.596 20.4384 83.5051C20.6027 83.4125 20.7232 83.2867 20.8001 83.1277C20.877 82.9687 20.9154 82.7879 20.9154 82.5852C20.9154 82.3825 20.877 82.2026 20.8001 82.0453C20.7232 81.8881 20.6018 81.7649 20.4358 81.6758C20.2715 81.5867 20.0549 81.5421 19.7858 81.5421H18.7689V86.2151H17.9591ZM22.617 86.2151V82.1894H23.3744V82.8289H23.4164C23.4897 82.6123 23.619 82.4419 23.8042 82.3179C23.9895 82.1921 24.2009 82.1292 24.4385 82.1292C24.5486 82.1292 24.6473 82.1423 24.7347 82.1685C24.822 82.1947 24.8989 82.2305 24.9653 82.2759L24.7137 82.9312C24.6665 82.9084 24.6132 82.8901 24.5538 82.8761C24.4944 82.8604 24.4263 82.8525 24.3494 82.8525C24.1677 82.8525 24.0052 82.8918 23.8619 82.9705C23.7204 83.0473 23.6077 83.1539 23.5238 83.2902C23.4417 83.4265 23.4006 83.582 23.4006 83.7567V86.2151H22.617ZM27.0947 86.2963C26.7173 86.2963 26.388 86.2098 26.1067 86.0369C25.8254 85.8639 25.607 85.6219 25.4515 85.3109C25.296 84.9999 25.2182 84.6365 25.2182 84.2206C25.2182 83.803 25.296 83.4379 25.4515 83.1251C25.607 82.8123 25.8254 82.5695 26.1067 82.3965C26.388 82.2235 26.7173 82.137 27.0947 82.137C27.4721 82.137 27.8015 82.2235 28.0828 82.3965C28.3641 82.5695 28.5825 82.8123 28.738 83.1251C28.8935 83.4379 28.9713 83.803 28.9713 84.2206C28.9713 84.6365 28.8935 84.9999 28.738 85.3109C28.5825 85.6219 28.3641 85.8639 28.0828 86.0369C27.8015 86.2098 27.4721 86.2963 27.0947 86.2963ZM27.0974 85.6385C27.342 85.6385 27.5446 85.5739 27.7054 85.4446C27.8661 85.3153 27.985 85.1432 28.0618 84.9282C28.1405 84.7133 28.1798 84.4766 28.1798 84.218C28.1798 83.9611 28.1405 83.7253 28.0618 83.5104C27.985 83.2937 27.8661 83.1199 27.7054 82.9888C27.5446 82.8578 27.342 82.7922 27.0974 82.7922C26.851 82.7922 26.6466 82.8578 26.4841 82.9888C26.3233 83.1199 26.2036 83.2937 26.125 83.5104C26.0481 83.7253 26.0097 83.9611 26.0097 84.218C26.0097 84.4766 26.0481 84.7133 26.125 84.9282C26.2036 85.1432 26.3233 85.3153 26.4841 85.4446C26.6466 85.5739 26.851 85.6385 27.0974 85.6385ZM31.7618 82.1894V82.8185H29.4869V82.1894H31.7618ZM30.1107 86.2151V81.7229C30.1107 81.4713 30.1657 81.2625 30.2758 81.0966C30.3859 80.9288 30.5318 80.8039 30.7135 80.7218C30.8952 80.6379 31.0926 80.596 31.3058 80.596C31.4631 80.596 31.5976 80.6091 31.7094 80.6353C31.8212 80.6597 31.9042 80.6825 31.9584 80.7034L31.7749 81.3377C31.7382 81.3272 31.6911 81.315 31.6334 81.301C31.5757 81.2853 31.5059 81.2774 31.4237 81.2774C31.2333 81.2774 31.097 81.3246 31.0149 81.4189C30.9345 81.5133 30.8943 81.6496 30.8943 81.8278V86.2151H30.1107ZM32.5704 86.2151V82.1894H33.354V86.2151H32.5704ZM32.9661 81.5683C32.8298 81.5683 32.7128 81.5229 32.6149 81.432C32.5188 81.3394 32.4708 81.2293 32.4708 81.1018C32.4708 80.9725 32.5188 80.8624 32.6149 80.7716C32.7128 80.679 32.8298 80.6327 32.9661 80.6327C33.1024 80.6327 33.2186 80.679 33.3147 80.7716C33.4125 80.8624 33.4615 80.9725 33.4615 81.1018C33.4615 81.2293 33.4125 81.3394 33.3147 81.432C33.2186 81.5229 33.1024 81.5683 32.9661 81.5683ZM36.1039 86.2963C35.7143 86.2963 35.3788 86.2081 35.0975 86.0316C34.818 85.8534 34.6031 85.6079 34.4528 85.2952C34.3025 84.9824 34.2274 84.6242 34.2274 84.2206C34.2274 83.8118 34.3043 83.451 34.458 83.1382C34.6118 82.8237 34.8285 82.5782 35.108 82.4017C35.3876 82.2253 35.7169 82.137 36.0961 82.137C36.4018 82.137 36.6744 82.1938 36.9138 82.3074C37.1532 82.4192 37.3462 82.5765 37.493 82.7791C37.6415 82.9818 37.7297 83.2186 37.7577 83.4894H36.995C36.9531 83.3007 36.857 83.1382 36.7067 83.0019C36.5582 82.8656 36.359 82.7975 36.1092 82.7975C35.8908 82.7975 35.6995 82.8551 35.5352 82.9705C35.3727 83.084 35.246 83.2465 35.1552 83.4579C35.0643 83.6676 35.0189 83.9157 35.0189 84.2023C35.0189 84.4958 35.0635 84.7492 35.1526 84.9623C35.2417 85.1755 35.3675 85.3406 35.53 85.4577C35.6942 85.5747 35.8873 85.6333 36.1092 85.6333C36.2577 85.6333 36.3922 85.6062 36.5128 85.552C36.6351 85.4961 36.7373 85.4166 36.8194 85.3135C36.9033 85.2104 36.9618 85.0864 36.995 84.9414H37.7577C37.7297 85.2017 37.645 85.4341 37.5035 85.6385C37.3619 85.8429 37.1724 86.0037 36.9347 86.1207C36.6989 86.2378 36.4219 86.2963 36.1039 86.2963ZM38.5957 86.2151V82.1894H39.3794V86.2151H38.5957ZM38.9915 81.5683C38.8552 81.5683 38.7381 81.5229 38.6403 81.432C38.5442 81.3394 38.4961 81.2293 38.4961 81.1018C38.4961 80.9725 38.5442 80.8624 38.6403 80.7716C38.7381 80.679 38.8552 80.6327 38.9915 80.6327C39.1278 80.6327 39.2439 80.679 39.34 80.7716C39.4379 80.8624 39.4868 80.9725 39.4868 81.1018C39.4868 81.2293 39.4379 81.3394 39.34 81.432C39.2439 81.5229 39.1278 81.5683 38.9915 81.5683ZM42.1686 86.2963C41.772 86.2963 41.4304 86.2116 41.1438 86.0421C40.859 85.8709 40.6389 85.6306 40.4834 85.3214C40.3296 85.0104 40.2528 84.6461 40.2528 84.2285C40.2528 83.8161 40.3296 83.4527 40.4834 83.1382C40.6389 82.8237 40.8556 82.5782 41.1334 82.4017C41.4129 82.2253 41.7397 82.137 42.1136 82.137C42.3407 82.137 42.5609 82.1746 42.774 82.2497C42.9872 82.3249 43.1785 82.4428 43.348 82.6035C43.5175 82.7643 43.6511 82.9731 43.749 83.2299C43.8468 83.485 43.8958 83.7952 43.8958 84.1603V84.4381H40.6957V83.8511H43.1278C43.1278 83.6449 43.0859 83.4623 43.002 83.3033C42.9182 83.1426 42.8002 83.0159 42.6482 82.9233C42.498 82.8307 42.3215 82.7844 42.1188 82.7844C41.8987 82.7844 41.7065 82.8385 41.5422 82.9469C41.3797 83.0535 41.2539 83.1932 41.1648 83.3662C41.0775 83.5374 41.0338 83.7235 41.0338 83.9245V84.3831C41.0338 84.6522 41.0809 84.8811 41.1753 85.0698C41.2714 85.2585 41.4051 85.4026 41.5763 85.5022C41.7475 85.6001 41.9476 85.649 42.1765 85.649C42.325 85.649 42.4604 85.628 42.5827 85.5861C42.705 85.5424 42.8107 85.4778 42.8998 85.3921C42.9889 85.3065 43.0571 85.2008 43.1043 85.075L43.846 85.2087C43.7865 85.4271 43.68 85.6184 43.5262 85.7826C43.3742 85.9451 43.1829 86.0718 42.9522 86.1627C42.7234 86.2518 42.4621 86.2963 42.1686 86.2963ZM45.5489 83.8249V86.2151H44.7652V82.1894H45.5174V82.8447H45.5672C45.6598 82.6315 45.8048 82.4603 46.0023 82.331C46.2014 82.2017 46.4522 82.137 46.7545 82.137C47.0288 82.137 47.269 82.1947 47.4752 82.31C47.6814 82.4236 47.8412 82.5931 47.9548 82.8185C48.0684 83.0438 48.1252 83.3225 48.1252 83.6545V86.2151H47.3415V83.7489C47.3415 83.4571 47.2655 83.2291 47.1135 83.0648C46.9615 82.8988 46.7527 82.8158 46.4871 82.8158C46.3054 82.8158 46.1438 82.8551 46.0023 82.9338C45.8625 83.0124 45.7515 83.1277 45.6694 83.2797C45.589 83.43 45.5489 83.6117 45.5489 83.8249ZM50.8718 86.2963C50.4822 86.2963 50.1467 86.2081 49.8654 86.0316C49.5859 85.8534 49.3709 85.6079 49.2207 85.2952C49.0704 84.9824 48.9953 84.6242 48.9953 84.2206C48.9953 83.8118 49.0722 83.451 49.2259 83.1382C49.3797 82.8237 49.5963 82.5782 49.8759 82.4017C50.1555 82.2253 50.4848 82.137 50.864 82.137C51.1697 82.137 51.4423 82.1938 51.6817 82.3074C51.921 82.4192 52.1141 82.5765 52.2609 82.7791C52.4094 82.9818 52.4976 83.2186 52.5256 83.4894H51.7629C51.721 83.3007 51.6249 83.1382 51.4746 83.0019C51.3261 82.8656 51.1269 82.7975 50.8771 82.7975C50.6587 82.7975 50.4673 82.8551 50.3031 82.9705C50.1406 83.084 50.0139 83.2465 49.9231 83.4579C49.8322 83.6676 49.7868 83.9157 49.7868 84.2023C49.7868 84.4958 49.8313 84.7492 49.9204 84.9623C50.0096 85.1755 50.1354 85.3406 50.2979 85.4577C50.4621 85.5747 50.6552 85.6333 50.8771 85.6333C51.0256 85.6333 51.1601 85.6062 51.2807 85.552C51.403 85.4961 51.5052 85.4166 51.5873 85.3135C51.6712 85.2104 51.7297 85.0864 51.7629 84.9414H52.5256C52.4976 85.2017 52.4129 85.4341 52.2714 85.6385C52.1298 85.8429 51.9403 86.0037 51.7026 86.1207C51.4668 86.2378 51.1898 86.2963 50.8718 86.2963ZM53.8589 87.7247C53.7419 87.7247 53.6353 87.7151 53.5392 87.6959C53.4431 87.6784 53.3715 87.6592 53.3243 87.6382L53.513 86.9961C53.6563 87.0345 53.7838 87.0511 53.8956 87.0459C54.0075 87.0407 54.1062 86.9987 54.1918 86.9201C54.2792 86.8415 54.356 86.7131 54.4224 86.5348L54.5194 86.2675L53.0465 82.1894H53.8852L54.9047 85.3135H54.9466L55.9661 82.1894H56.8074L55.1484 86.7524C55.0715 86.962 54.9737 87.1394 54.8549 87.2844C54.7361 87.4312 54.5945 87.5412 54.4303 87.6146C54.266 87.688 54.0756 87.7247 53.8589 87.7247Z" fill="#111827"/>
<g filter="url(#filter1_d_416_121238)">
<rect x="17.3694" y="91.3237" width="197.688" height="21.5433" rx="3.163" fill="white"/>
<path d="M27.2806 100.57C27.2492 100.304 27.1216 100.098 26.898 99.9511C26.6744 99.8043 26.4 99.7309 26.0751 99.7309C25.8374 99.7309 25.6295 99.7693 25.4513 99.8462C25.2748 99.9231 25.1368 100.029 25.0372 100.163C24.9393 100.298 24.8904 100.451 24.8904 100.622C24.8904 100.765 24.9245 100.888 24.9926 100.992C25.0625 101.093 25.1516 101.178 25.26 101.246C25.3683 101.312 25.4819 101.367 25.6007 101.411C25.7195 101.453 25.8287 101.487 25.9283 101.513L26.4734 101.66C26.6132 101.697 26.7687 101.747 26.9399 101.812C27.1129 101.877 27.278 101.965 27.4353 102.077C27.5943 102.187 27.7253 102.328 27.8284 102.501C27.9315 102.674 27.983 102.886 27.983 103.138C27.983 103.428 27.907 103.69 27.755 103.924C27.6048 104.158 27.3846 104.344 27.0946 104.483C26.8063 104.621 26.456 104.69 26.0436 104.69C25.6592 104.69 25.3264 104.628 25.0451 104.503C24.7655 104.379 24.5453 104.206 24.3846 103.985C24.2256 103.763 24.1356 103.505 24.1146 103.211H24.7856C24.8031 103.414 24.8712 103.582 24.99 103.715C25.1106 103.846 25.2626 103.943 25.446 104.008C25.6313 104.071 25.8304 104.102 26.0436 104.102C26.2917 104.102 26.5145 104.062 26.7119 103.982C26.9094 103.9 27.0657 103.786 27.1811 103.641C27.2964 103.494 27.354 103.323 27.354 103.128C27.354 102.949 27.3042 102.804 27.2046 102.692C27.105 102.581 26.974 102.49 26.8115 102.42C26.649 102.35 26.4734 102.289 26.2847 102.236L25.6243 102.048C25.2049 101.927 24.873 101.755 24.6283 101.531C24.3837 101.308 24.2614 101.015 24.2614 100.653C24.2614 100.353 24.3427 100.091 24.5052 99.8672C24.6694 99.6418 24.8896 99.4671 25.1656 99.343C25.4434 99.2172 25.7536 99.1543 26.096 99.1543C26.442 99.1543 26.7495 99.2163 27.0186 99.3404C27.2876 99.4627 27.5008 99.6304 27.6581 99.8436C27.817 100.057 27.9009 100.299 27.9097 100.57H27.2806ZM30.6557 104.679C30.2678 104.679 29.9332 104.593 29.6519 104.422C29.3723 104.249 29.1565 104.008 29.0045 103.699C28.8543 103.388 28.7791 103.026 28.7791 102.614C28.7791 102.201 28.8543 101.838 29.0045 101.524C29.1565 101.207 29.3679 100.961 29.6388 100.784C29.9113 100.606 30.2293 100.517 30.5928 100.517C30.8024 100.517 31.0095 100.552 31.2139 100.622C31.4183 100.692 31.6044 100.805 31.7721 100.963C31.9399 101.118 32.0735 101.324 32.1731 101.581C32.2727 101.838 32.3225 102.154 32.3225 102.53V102.792H29.2194V102.257H31.6935C31.6935 102.03 31.6481 101.828 31.5572 101.649C31.4681 101.471 31.3406 101.33 31.1746 101.227C31.0103 101.124 30.8164 101.073 30.5928 101.073C30.3464 101.073 30.1332 101.134 29.9533 101.256C29.775 101.377 29.6379 101.534 29.5418 101.728C29.4457 101.922 29.3976 102.13 29.3976 102.352V102.708C29.3976 103.012 29.4501 103.27 29.5549 103.481C29.6615 103.691 29.8091 103.851 29.9978 103.961C30.1865 104.069 30.4058 104.123 30.6557 104.123C30.8182 104.123 30.9649 104.101 31.096 104.055C31.2288 104.008 31.3432 103.938 31.4393 103.846C31.5354 103.751 31.6097 103.634 31.6621 103.494L32.2596 103.662C32.1967 103.865 32.091 104.043 31.9425 104.197C31.794 104.349 31.6105 104.468 31.3921 104.553C31.1737 104.637 30.9282 104.679 30.6557 104.679ZM33.2634 99.2277H33.8819V103.547C33.8819 103.743 33.9038 103.88 33.9475 103.958C33.9911 104.037 34.0811 104.075 34.2174 104.071C34.2908 104.068 34.345 104.062 34.3799 104.055C34.4166 104.047 34.4498 104.038 34.4795 104.029L34.6053 104.564C34.5511 104.579 34.483 104.593 34.4009 104.606C34.3187 104.62 34.2331 104.627 34.144 104.627C33.8505 104.627 33.6303 104.546 33.4836 104.386C33.3368 104.225 33.2634 104.001 33.2634 103.715V99.2277ZM36.8612 104.679C36.4733 104.679 36.1387 104.593 35.8574 104.422C35.5778 104.249 35.3621 104.008 35.2101 103.699C35.0598 103.388 34.9847 103.026 34.9847 102.614C34.9847 102.201 35.0598 101.838 35.2101 101.524C35.3621 101.207 35.5735 100.961 35.8443 100.784C36.1169 100.606 36.4349 100.517 36.7983 100.517C37.008 100.517 37.215 100.552 37.4194 100.622C37.6239 100.692 37.8099 100.805 37.9777 100.963C38.1454 101.118 38.2791 101.324 38.3787 101.581C38.4783 101.838 38.5281 102.154 38.5281 102.53V102.792H35.425V102.257H37.8991C37.8991 102.03 37.8536 101.828 37.7628 101.649C37.6737 101.471 37.5461 101.33 37.3801 101.227C37.2159 101.124 37.0219 101.073 36.7983 101.073C36.5519 101.073 36.3388 101.134 36.1588 101.256C35.9806 101.377 35.8434 101.534 35.7473 101.728C35.6512 101.922 35.6032 102.13 35.6032 102.352V102.708C35.6032 103.012 35.6556 103.27 35.7604 103.481C35.867 103.691 36.0147 103.851 36.2034 103.961C36.3921 104.069 36.6113 104.123 36.8612 104.123C37.0237 104.123 37.1705 104.101 37.3015 104.055C37.4343 104.008 37.5487 103.938 37.6448 103.846C37.7409 103.751 37.8152 103.634 37.8676 103.494L38.4652 103.662C38.4023 103.865 38.2966 104.043 38.148 104.197C37.9995 104.349 37.8161 104.468 37.5977 104.553C37.3793 104.637 37.1338 104.679 36.8612 104.679ZM41.1044 104.679C40.727 104.679 40.402 104.59 40.1294 104.412C39.8568 104.234 39.6472 103.988 39.5004 103.675C39.3536 103.363 39.2802 103.005 39.2802 102.603C39.2802 102.195 39.3554 101.834 39.5056 101.521C39.6577 101.206 39.8691 100.961 40.1399 100.784C40.4125 100.606 40.7305 100.517 41.0939 100.517C41.3769 100.517 41.632 100.57 41.8592 100.674C42.0863 100.779 42.2724 100.926 42.4174 101.115C42.5624 101.303 42.6524 101.524 42.6874 101.775H42.0688C42.0217 101.592 41.9168 101.429 41.7543 101.288C41.5936 101.144 41.3769 101.073 41.1044 101.073C40.8632 101.073 40.6518 101.136 40.4701 101.261C40.2902 101.386 40.1495 101.561 40.0482 101.788C39.9486 102.014 39.8988 102.278 39.8988 102.582C39.8988 102.893 39.9477 103.164 40.0455 103.395C40.1451 103.625 40.2849 103.805 40.4649 103.932C40.6466 104.06 40.8598 104.123 41.1044 104.123C41.2651 104.123 41.411 104.096 41.542 104.04C41.6731 103.984 41.784 103.903 41.8749 103.798C41.9658 103.694 42.0304 103.568 42.0688 103.421H42.6874C42.6524 103.659 42.5659 103.873 42.4279 104.063C42.2916 104.252 42.1108 104.402 41.8854 104.514C41.6617 104.624 41.4014 104.679 41.1044 104.679ZM45.3423 100.57V101.094H43.2561V100.57H45.3423ZM43.8641 99.6051H44.4827V103.442C44.4827 103.617 44.508 103.748 44.5587 103.835C44.6111 103.921 44.6775 103.978 44.7578 104.008C44.84 104.036 44.9265 104.05 45.0173 104.05C45.0855 104.05 45.1414 104.047 45.185 104.04C45.2287 104.031 45.2637 104.024 45.2899 104.019L45.4157 104.574C45.3737 104.59 45.3152 104.606 45.2401 104.621C45.1649 104.639 45.0697 104.648 44.9544 104.648C44.7797 104.648 44.6085 104.61 44.4407 104.535C44.2747 104.46 44.1367 104.345 44.0266 104.192C43.9183 104.038 43.8641 103.844 43.8641 103.61V99.6051ZM46.7235 104.637C46.5942 104.637 46.4832 104.591 46.3906 104.498C46.298 104.406 46.2517 104.295 46.2517 104.165C46.2517 104.036 46.298 103.925 46.3906 103.833C46.4832 103.74 46.5942 103.694 46.7235 103.694C46.8528 103.694 46.9637 103.74 47.0563 103.833C47.1489 103.925 47.1952 104.036 47.1952 104.165C47.1952 104.251 47.1734 104.33 47.1297 104.401C47.0878 104.473 47.031 104.531 46.9594 104.574C46.8895 104.616 46.8108 104.637 46.7235 104.637ZM48.756 104.637C48.6267 104.637 48.5157 104.591 48.4231 104.498C48.3305 104.406 48.2842 104.295 48.2842 104.165C48.2842 104.036 48.3305 103.925 48.4231 103.833C48.5157 103.74 48.6267 103.694 48.756 103.694C48.8853 103.694 48.9962 103.74 49.0888 103.833C49.1814 103.925 49.2277 104.036 49.2277 104.165C49.2277 104.251 49.2059 104.33 49.1622 104.401C49.1203 104.473 49.0635 104.531 48.9918 104.574C48.9219 104.616 48.8433 104.637 48.756 104.637Z" fill="#9CA3AF"/>
<path d="M206.095 101.041L203.459 103.677L200.823 101.041" stroke="#6B7280" stroke-width="0.880369" stroke-linecap="round" stroke-linejoin="round"/>
<rect x="17.633" y="91.5873" width="197.16" height="21.0162" rx="2.89942" stroke="#D1D5DB" stroke-width="0.527167"/>
</g>
<path d="M20.8866 127.453C20.8586 127.205 20.7433 127.013 20.5406 126.877C20.3379 126.739 20.0828 126.67 19.7753 126.67C19.5552 126.67 19.3647 126.704 19.204 126.774C19.0432 126.842 18.9183 126.937 18.8292 127.057C18.7418 127.176 18.6982 127.312 18.6982 127.464C18.6982 127.591 18.7279 127.701 18.7873 127.794C18.8484 127.886 18.9279 127.964 19.0258 128.027C19.1254 128.088 19.2319 128.14 19.3455 128.182C19.4591 128.222 19.5683 128.255 19.6731 128.281L20.1973 128.418C20.3685 128.46 20.5441 128.516 20.7241 128.588C20.904 128.66 21.0709 128.754 21.2247 128.871C21.3784 128.988 21.5025 129.133 21.5968 129.306C21.6929 129.479 21.741 129.686 21.741 129.927C21.741 130.231 21.6624 130.501 21.5051 130.737C21.3496 130.973 21.1233 131.159 20.8263 131.295C20.531 131.432 20.1737 131.5 19.7544 131.5C19.3525 131.5 19.0048 131.436 18.7113 131.308C18.4177 131.181 18.188 131 18.022 130.766C17.856 130.53 17.7643 130.25 17.7468 129.927H18.5593C18.575 130.121 18.6379 130.283 18.748 130.412C18.8598 130.54 19.0022 130.635 19.1752 130.698C19.3499 130.759 19.5412 130.79 19.7491 130.79C19.978 130.79 20.1816 130.754 20.3598 130.682C20.5398 130.609 20.6813 130.507 20.7844 130.378C20.8875 130.247 20.939 130.094 20.939 129.919C20.939 129.76 20.8936 129.63 20.8027 129.529C20.7136 129.428 20.5922 129.344 20.4384 129.277C20.2864 129.211 20.1143 129.152 19.9221 129.102L19.2879 128.929C18.858 128.812 18.5173 128.64 18.2657 128.412C18.0159 128.185 17.8909 127.885 17.8909 127.511C17.8909 127.202 17.9748 126.932 18.1425 126.701C18.3103 126.47 18.5374 126.291 18.824 126.164C19.1105 126.034 19.4337 125.97 19.7937 125.97C20.1571 125.97 20.4777 126.034 20.7555 126.161C21.0351 126.289 21.2552 126.464 21.416 126.688C21.5767 126.91 21.6606 127.165 21.6676 127.453H20.8866ZM23.3666 130.045L23.3613 129.089H23.4976L25.1016 127.385H26.0398L24.2105 129.324H24.0873L23.3666 130.045ZM22.6458 131.411V126.043H23.4295V131.411H22.6458ZM25.1881 131.411L23.7466 129.497L24.2865 128.95L26.1499 131.411H25.1881ZM26.754 131.411V127.385H27.5377V131.411H26.754ZM27.1498 126.764C27.0135 126.764 26.8964 126.718 26.7986 126.628C26.7025 126.535 26.6544 126.425 26.6544 126.297C26.6544 126.168 26.7025 126.058 26.7986 125.967C26.8964 125.875 27.0135 125.828 27.1498 125.828C27.2861 125.828 27.4023 125.875 27.4983 125.967C27.5962 126.058 27.6451 126.168 27.6451 126.297C27.6451 126.425 27.5962 126.535 27.4983 126.628C27.4023 126.718 27.2861 126.764 27.1498 126.764ZM28.5919 126.043H29.3755V130.31C29.3755 130.483 29.3974 130.605 29.4411 130.677C29.4865 130.748 29.5721 130.783 29.6979 130.779C29.766 130.777 29.8167 130.773 29.8499 130.766C29.8849 130.759 29.9163 130.751 29.9443 130.742L30.0858 131.369C30.0316 131.384 29.9626 131.399 29.8787 131.413C29.7966 131.429 29.7031 131.438 29.5983 131.439C29.2593 131.445 29.0069 131.364 28.8409 131.198C28.6749 131.032 28.5919 130.79 28.5919 130.472V126.043ZM30.7109 126.043H31.4945V130.31C31.4945 130.483 31.5163 130.605 31.56 130.677C31.6055 130.748 31.6911 130.783 31.8169 130.779C31.885 130.777 31.9357 130.773 31.9689 130.766C32.0038 130.759 32.0353 130.751 32.0632 130.742L32.2048 131.369C32.1506 131.384 32.0816 131.399 31.9977 131.413C31.9156 131.429 31.8221 131.438 31.7173 131.439C31.3783 131.445 31.1258 131.364 30.9598 131.198C30.7939 131.032 30.7109 130.79 30.7109 130.472V126.043ZM35.7383 128.368L35.0281 128.494C34.9984 128.403 34.9512 128.316 34.8865 128.234C34.8236 128.152 34.738 128.085 34.6297 128.032C34.5214 127.98 34.386 127.954 34.2235 127.954C34.0016 127.954 33.8164 128.004 33.6678 128.103C33.5193 128.201 33.4451 128.328 33.4451 128.483C33.4451 128.618 33.4949 128.726 33.5945 128.808C33.6941 128.89 33.8548 128.958 34.0767 129.01L34.7162 129.157C35.0866 129.242 35.3627 129.374 35.5444 129.552C35.7261 129.731 35.817 129.962 35.817 130.247C35.817 130.488 35.7471 130.703 35.6073 130.892C35.4693 131.079 35.2762 131.225 35.0281 131.332C34.7817 131.439 34.496 131.492 34.1711 131.492C33.7203 131.492 33.3525 131.396 33.0677 131.204C32.7829 131.01 32.6081 130.734 32.5435 130.378L33.3009 130.263C33.3481 130.46 33.4451 130.61 33.5918 130.711C33.7386 130.81 33.9299 130.86 34.1658 130.86C34.4227 130.86 34.628 130.807 34.7817 130.7C34.9355 130.592 35.0123 130.46 35.0123 130.305C35.0123 130.179 34.9652 130.073 34.8708 129.988C34.7782 129.902 34.6358 129.837 34.4436 129.794L33.7622 129.644C33.3865 129.559 33.1087 129.422 32.9288 129.235C32.7505 129.048 32.6614 128.812 32.6614 128.525C32.6614 128.287 32.7278 128.08 32.8606 127.901C32.9934 127.723 33.1769 127.584 33.411 127.485C33.6451 127.383 33.9133 127.333 34.2156 127.333C34.6507 127.333 34.9931 127.427 35.243 127.616C35.4928 127.803 35.658 128.053 35.7383 128.368Z" fill="#111827"/>
<g filter="url(#filter2_d_416_121238)">
<rect x="17.3694" y="136.519" width="197.688" height="21.5433" rx="3.163" fill="white"/>
<path d="M32.6572 150.981L30.1971 148.521M31.0171 146.471C31.0171 148.056 29.7321 149.341 28.147 149.341C26.5619 149.341 25.2769 148.056 25.2769 146.471C25.2769 144.886 26.5619 143.601 28.147 143.601C29.7321 143.601 31.0171 144.886 31.0171 146.471Z" stroke="#6B7280" stroke-width="0.880369" stroke-linecap="round" stroke-linejoin="round"/>
<path d="M42.0414 145.765C42.0099 145.5 41.8824 145.293 41.6587 145.147C41.4351 145 41.1608 144.926 40.8358 144.926C40.5982 144.926 40.3902 144.965 40.212 145.042C40.0356 145.119 39.8975 145.224 39.7979 145.359C39.7001 145.493 39.6512 145.646 39.6512 145.818C39.6512 145.961 39.6852 146.084 39.7534 146.187C39.8233 146.288 39.9124 146.373 40.0207 146.441C40.129 146.508 40.2426 146.563 40.3614 146.606C40.4802 146.648 40.5894 146.682 40.689 146.709L41.2342 146.855C41.3739 146.892 41.5294 146.943 41.7007 147.007C41.8737 147.072 42.0388 147.16 42.196 147.272C42.355 147.382 42.4861 147.524 42.5891 147.697C42.6922 147.87 42.7438 148.082 42.7438 148.334C42.7438 148.624 42.6678 148.886 42.5158 149.12C42.3655 149.354 42.1453 149.54 41.8553 149.678C41.567 149.816 41.2167 149.885 40.8043 149.885C40.42 149.885 40.0871 149.823 39.8058 149.699C39.5262 149.575 39.3061 149.402 39.1453 149.18C38.9863 148.958 38.8964 148.7 38.8754 148.407H39.5463C39.5638 148.61 39.6319 148.777 39.7508 148.91C39.8713 149.041 40.0233 149.139 40.2068 149.204C40.392 149.267 40.5912 149.298 40.8043 149.298C41.0525 149.298 41.2752 149.258 41.4727 149.177C41.6701 149.095 41.8265 148.982 41.9418 148.837C42.0571 148.69 42.1148 148.519 42.1148 148.323C42.1148 148.145 42.065 148 41.9654 147.888C41.8658 147.776 41.7347 147.685 41.5723 147.615C41.4098 147.546 41.2342 147.484 41.0455 147.432L40.385 147.243C39.9657 147.123 39.6337 146.951 39.3891 146.727C39.1445 146.503 39.0222 146.211 39.0222 145.849C39.0222 145.548 39.1034 145.286 39.2659 145.063C39.4301 144.837 39.6503 144.663 39.9264 144.539C40.2042 144.413 40.5143 144.35 40.8568 144.35C41.2027 144.35 41.5102 144.412 41.7793 144.536C42.0484 144.658 42.2615 144.826 42.4188 145.039C42.5778 145.252 42.6617 145.494 42.6704 145.765H42.0414ZM45.4164 149.875C45.0285 149.875 44.6939 149.789 44.4126 149.618C44.1331 149.445 43.9173 149.204 43.7653 148.894C43.615 148.583 43.5399 148.222 43.5399 147.809C43.5399 147.397 43.615 147.034 43.7653 146.719C43.9173 146.403 44.1287 146.157 44.3995 145.98C44.6721 145.802 44.9901 145.713 45.3535 145.713C45.5632 145.713 45.7702 145.748 45.9746 145.818C46.1791 145.887 46.3652 146.001 46.5329 146.158C46.7006 146.314 46.8343 146.52 46.9339 146.777C47.0335 147.034 47.0833 147.35 47.0833 147.726V147.988H43.9802V147.453H46.4543C46.4543 147.226 46.4088 147.023 46.318 146.845C46.2289 146.667 46.1013 146.526 45.9353 146.423C45.7711 146.32 45.5771 146.268 45.3535 146.268C45.1071 146.268 44.894 146.329 44.714 146.452C44.5358 146.572 44.3986 146.73 44.3025 146.924C44.2064 147.117 44.1584 147.325 44.1584 147.547V147.904C44.1584 148.208 44.2108 148.465 44.3156 148.677C44.4222 148.887 44.5699 149.046 44.7586 149.157C44.9473 149.265 45.1665 149.319 45.4164 149.319C45.5789 149.319 45.7257 149.296 45.8567 149.251C45.9895 149.204 46.1039 149.134 46.2 149.041C46.2961 148.947 46.3704 148.83 46.4228 148.69L47.0204 148.858C46.9575 149.06 46.8518 149.239 46.7032 149.392C46.5547 149.544 46.3713 149.663 46.1529 149.749C45.9345 149.833 45.689 149.875 45.4164 149.875ZM49.5443 149.875C49.2088 149.875 48.9126 149.79 48.6558 149.62C48.3989 149.449 48.198 149.208 48.053 148.897C47.908 148.584 47.8355 148.215 47.8355 147.788C47.8355 147.366 47.908 146.999 48.053 146.688C48.198 146.377 48.3998 146.136 48.6584 145.967C48.917 145.797 49.2158 145.713 49.5547 145.713C49.8168 145.713 50.0239 145.756 50.1759 145.844C50.3296 145.929 50.4467 146.027 50.5271 146.137C50.6092 146.246 50.673 146.335 50.7184 146.405H50.7708V145.765H51.3893V149.791H50.7918V149.172H50.7184C50.673 149.246 50.6083 149.338 50.5245 149.45C50.4406 149.56 50.3209 149.659 50.1654 149.746C50.0099 149.832 49.8028 149.875 49.5443 149.875ZM49.6281 149.319C49.8762 149.319 50.0859 149.254 50.2571 149.125C50.4284 148.994 50.5585 148.813 50.6476 148.583C50.7367 148.35 50.7813 148.082 50.7813 147.778C50.7813 147.477 50.7376 147.214 50.6503 146.989C50.5629 146.762 50.4336 146.585 50.2624 146.46C50.0911 146.332 49.8797 146.268 49.6281 146.268C49.366 146.268 49.1476 146.336 48.9729 146.47C48.7999 146.603 48.6698 146.784 48.5824 147.013C48.4968 147.24 48.454 147.495 48.454 147.778C48.454 148.064 48.4977 148.325 48.585 148.559C48.6741 148.791 48.8052 148.977 48.9781 149.115C49.1529 149.251 49.3695 149.319 49.6281 149.319ZM52.608 149.791V145.765H53.2056V146.373H53.2475C53.3192 146.174 53.4511 146.012 53.6433 145.888C53.8355 145.764 54.053 145.702 54.2959 145.702C54.4077 145.702 54.5055 145.715 54.5894 145.742C54.6733 145.768 54.7467 145.804 54.8096 145.849L54.5999 146.373C54.5562 146.35 54.5047 146.333 54.4453 146.321C54.3876 146.307 54.3203 146.3 54.2435 146.3C54.0478 146.3 53.873 146.341 53.7193 146.423C53.5673 146.505 53.4467 146.617 53.3576 146.758C53.2702 146.9 53.2266 147.062 53.2266 147.243V149.791H52.608ZM56.9534 149.875C56.576 149.875 56.251 149.786 55.9785 149.607C55.7059 149.429 55.4962 149.184 55.3495 148.871C55.2027 148.558 55.1293 148.201 55.1293 147.799C55.1293 147.39 55.2044 147.029 55.3547 146.717C55.5067 146.402 55.7181 146.157 55.9889 145.98C56.2615 145.802 56.5795 145.713 56.9429 145.713C57.226 145.713 57.4811 145.765 57.7082 145.87C57.9354 145.975 58.1214 146.122 58.2665 146.31C58.4115 146.499 58.5015 146.719 58.5364 146.971H57.9179C57.8707 146.787 57.7659 146.625 57.6034 146.483C57.4426 146.34 57.226 146.268 56.9534 146.268C56.7123 146.268 56.5009 146.331 56.3192 146.457C56.1392 146.581 55.9986 146.757 55.8972 146.984C55.7976 147.209 55.7478 147.474 55.7478 147.778C55.7478 148.089 55.7967 148.36 55.8946 148.59C55.9942 148.821 56.134 149 56.3139 149.128C56.4956 149.255 56.7088 149.319 56.9534 149.319C57.1142 149.319 57.2601 149.291 57.3911 149.235C57.5221 149.179 57.6331 149.099 57.724 148.994C57.8148 148.889 57.8795 148.763 57.9179 148.617H58.5364C58.5015 148.854 58.415 149.068 58.277 149.259C58.1407 149.447 57.9598 149.598 57.7344 149.71C57.5108 149.82 57.2504 149.875 56.9534 149.875ZM60.0591 147.369V149.791H59.4406V144.423H60.0591V146.394H60.1116C60.2059 146.186 60.3474 146.021 60.5361 145.899C60.7266 145.775 60.9799 145.713 61.2962 145.713C61.5705 145.713 61.8107 145.768 62.0169 145.878C62.2231 145.986 62.383 146.153 62.4965 146.378C62.6119 146.602 62.6695 146.887 62.6695 147.233V149.791H62.051V147.275C62.051 146.955 61.968 146.708 61.802 146.533C61.6378 146.357 61.4098 146.268 61.118 146.268C60.9153 146.268 60.7336 146.311 60.5728 146.397C60.4138 146.482 60.288 146.607 60.1954 146.772C60.1046 146.936 60.0591 147.135 60.0591 147.369ZM68.7283 146.667L68.1727 146.824C68.1377 146.731 68.0862 146.641 68.018 146.554C67.9516 146.465 67.8608 146.392 67.7455 146.334C67.6301 146.276 67.4825 146.247 67.3025 146.247C67.0562 146.247 66.8509 146.304 66.6866 146.418C66.5241 146.53 66.4429 146.672 66.4429 146.845C66.4429 146.999 66.4988 147.12 66.6106 147.209C66.7225 147.298 66.8972 147.373 67.1348 147.432L67.7324 147.579C68.0923 147.666 68.3605 147.8 68.537 147.98C68.7134 148.158 68.8017 148.388 68.8017 148.669C68.8017 148.9 68.7353 149.106 68.6025 149.288C68.4714 149.469 68.288 149.613 68.0521 149.717C67.8162 149.822 67.5419 149.875 67.2292 149.875C66.8185 149.875 66.4787 149.786 66.2096 149.607C65.9406 149.429 65.7702 149.169 65.6986 148.826L66.2856 148.68C66.3416 148.896 66.4473 149.059 66.6028 149.167C66.76 149.275 66.9653 149.33 67.2187 149.33C67.507 149.33 67.7359 149.268 67.9053 149.146C68.0766 149.022 68.1622 148.873 68.1622 148.7C68.1622 148.561 68.1133 148.444 68.0154 148.349C67.9176 148.253 67.7673 148.182 67.5646 148.134L66.8937 147.977C66.525 147.89 66.2542 147.754 66.0812 147.571C65.91 147.386 65.8244 147.154 65.8244 146.876C65.8244 146.649 65.8881 146.448 66.0157 146.274C66.145 146.099 66.3206 145.962 66.5425 145.862C66.7661 145.763 67.0195 145.713 67.3025 145.713C67.7009 145.713 68.0137 145.8 68.2408 145.975C68.4697 146.15 68.6322 146.38 68.7283 146.667ZM70.3093 148.323L70.2988 147.558H70.4246L72.1858 145.765H72.9511L71.0746 147.663H71.0222L70.3093 148.323ZM69.7327 149.791V144.423H70.3512V149.791H69.7327ZM72.2907 149.791L70.7182 147.799L71.1585 147.369L73.0769 149.791H72.2907ZM73.7472 149.791V145.765H74.3657V149.791H73.7472ZM74.0617 145.094C73.9412 145.094 73.8372 145.053 73.7498 144.971C73.6642 144.889 73.6214 144.79 73.6214 144.675C73.6214 144.56 73.6642 144.461 73.7498 144.379C73.8372 144.297 73.9412 144.256 74.0617 144.256C74.1823 144.256 74.2854 144.297 74.371 144.379C74.4584 144.461 74.502 144.56 74.502 144.675C74.502 144.79 74.4584 144.889 74.371 144.971C74.2854 145.053 74.1823 145.094 74.0617 145.094ZM75.4986 144.423H76.1171V148.742C76.1171 148.938 76.139 149.075 76.1827 149.154C76.2263 149.233 76.3163 149.27 76.4526 149.267C76.526 149.263 76.5802 149.258 76.6151 149.251C76.6518 149.242 76.685 149.233 76.7147 149.225L76.8405 149.759C76.7863 149.775 76.7182 149.789 76.6361 149.801C76.5539 149.815 76.4683 149.822 76.3792 149.822C76.0857 149.822 75.8655 149.742 75.7188 149.581C75.572 149.42 75.4986 149.197 75.4986 148.91V144.423ZM77.5167 144.423H78.1352V148.742C78.1352 148.938 78.157 149.075 78.2007 149.154C78.2444 149.233 78.3344 149.27 78.4707 149.267C78.5441 149.263 78.5982 149.258 78.6332 149.251C78.6699 149.242 78.703 149.233 78.7328 149.225L78.8586 149.759C78.8044 149.775 78.7362 149.789 78.6541 149.801C78.572 149.815 78.4864 149.822 78.3973 149.822C78.1037 149.822 77.8836 149.742 77.7368 149.581C77.5901 149.42 77.5167 149.197 77.5167 148.91V144.423ZM82.2781 146.667L81.7225 146.824C81.6876 146.731 81.636 146.641 81.5679 146.554C81.5015 146.465 81.4106 146.392 81.2953 146.334C81.18 146.276 81.0323 146.247 80.8524 146.247C80.606 146.247 80.4007 146.304 80.2365 146.418C80.074 146.53 79.9927 146.672 79.9927 146.845C79.9927 146.999 80.0486 147.12 80.1605 147.209C80.2723 147.298 80.447 147.373 80.6846 147.432L81.2822 147.579C81.6421 147.666 81.9103 147.8 82.0868 147.98C82.2633 148.158 82.3515 148.388 82.3515 148.669C82.3515 148.9 82.2851 149.106 82.1523 149.288C82.0213 149.469 81.8378 149.613 81.6019 149.717C81.3661 149.822 81.0917 149.875 80.779 149.875C80.3684 149.875 80.0285 149.786 79.7595 149.607C79.4904 149.429 79.32 149.169 79.2484 148.826L79.8355 148.68C79.8914 148.896 79.9971 149.059 80.1526 149.167C80.3099 149.275 80.5152 149.33 80.7685 149.33C81.0568 149.33 81.2857 149.268 81.4552 149.146C81.6264 149.022 81.712 148.873 81.712 148.7C81.712 148.561 81.6631 148.444 81.5652 148.349C81.4674 148.253 81.3171 148.182 81.1145 148.134L80.4435 147.977C80.0749 147.89 79.804 147.754 79.6311 147.571C79.4598 147.386 79.3742 147.154 79.3742 146.876C79.3742 146.649 79.438 146.448 79.5655 146.274C79.6948 146.099 79.8704 145.962 80.0923 145.862C80.316 145.763 80.5693 145.713 80.8524 145.713C81.2507 145.713 81.5635 145.8 81.7906 145.975C82.0195 146.15 82.182 146.38 82.2781 146.667Z" fill="#9CA3AF"/>
<rect x="17.633" y="136.783" width="197.16" height="21.0162" rx="2.89942" stroke="#D1D5DB" stroke-width="0.527167"/>
</g>
<defs>
<filter id="filter0_d_416_121238" x="15.3694" y="29.9111" width="201.688" height="25.5435" filterUnits="userSpaceOnUse" color-interpolation-filters="sRGB">
<feFlood flood-opacity="0" result="BackgroundImageFix"/>
<feColorMatrix in="SourceAlpha" type="matrix" values="0 0 0 0 0 0 0 0 0 0 0 0 0 0 0 0 0 0 127 0" result="hardAlpha"/>
<feOffset dy="1"/>
<feGaussianBlur stdDeviation="1"/>
<feColorMatrix type="matrix" values="0 0 0 0 0.0627451 0 0 0 0 0.0941176 0 0 0 0 0.156863 0 0 0 0.05 0"/>
<feBlend mode="normal" in2="BackgroundImageFix" result="effect1_dropShadow_416_121238"/>
<feBlend mode="normal" in="SourceGraphic" in2="effect1_dropShadow_416_121238" result="shape"/>
</filter>
<filter id="filter1_d_416_121238" x="15.3694" y="90.3237" width="201.688" height="25.5435" filterUnits="userSpaceOnUse" color-interpolation-filters="sRGB">
<feFlood flood-opacity="0" result="BackgroundImageFix"/>
<feColorMatrix in="SourceAlpha" type="matrix" values="0 0 0 0 0 0 0 0 0 0 0 0 0 0 0 0 0 0 127 0" result="hardAlpha"/>
<feOffset dy="1"/>
<feGaussianBlur stdDeviation="1"/>
<feColorMatrix type="matrix" values="0 0 0 0 0.0627451 0 0 0 0 0.0941176 0 0 0 0 0.156863 0 0 0 0.05 0"/>
<feBlend mode="normal" in2="BackgroundImageFix" result="effect1_dropShadow_416_121238"/>
<feBlend mode="normal" in="SourceGraphic" in2="effect1_dropShadow_416_121238" result="shape"/>
</filter>
<filter id="filter2_d_416_121238" x="15.3694" y="135.519" width="201.688" height="25.5435" filterUnits="userSpaceOnUse" color-interpolation-filters="sRGB">
<feFlood flood-opacity="0" result="BackgroundImageFix"/>
<feColorMatrix in="SourceAlpha" type="matrix" values="0 0 0 0 0 0 0 0 0 0 0 0 0 0 0 0 0 0 127 0" result="hardAlpha"/>
<feOffset dy="1"/>
<feGaussianBlur stdDeviation="1"/>
<feColorMatrix type="matrix" values="0 0 0 0 0.0627451 0 0 0 0 0.0941176 0 0 0 0 0.156863 0 0 0 0.05 0"/>
<feBlend mode="normal" in2="BackgroundImageFix" result="effect1_dropShadow_416_121238"/>
<feBlend mode="normal" in="SourceGraphic" in2="effect1_dropShadow_416_121238" result="shape"/>
</filter>
</defs>
</svg>
